<svg width="24" height="24" viewBox="0 0 24 24" fill="none" xmlns="http://www.w3.org/2000/svg">
<path fill-rule="evenodd" clip-rule="evenodd" d="M10.2222 11.994C10.7484 12.3456 11.3671 12.5333 12 12.5333C12.8482 12.5316 13.6611 12.1938 14.2608 11.5941C14.8605 10.9944 15.1982 10.1815 15.2 9.33332C15.2 8.70042 15.0123 8.08173 14.6607 7.55549C14.3091 7.02925 13.8093 6.6191 13.2246 6.3769C12.6399 6.1347 11.9965 6.07133 11.3757 6.1948C10.755 6.31828 10.1848 6.62305 9.73727 7.07057C9.28974 7.5181 8.98497 8.08829 8.8615 8.70903C8.73803 9.32977 8.8014 9.97318 9.0436 10.5579C9.2858 11.1426 9.69595 11.6424 10.2222 11.994ZM11.0111 7.8533C11.3038 7.65771 11.648 7.55332 12 7.55332V7.55998C12.4709 7.55998 12.9227 7.7466 13.2563 8.07897C13.5899 8.41135 13.7782 8.86239 13.78 9.33332C13.78 9.68537 13.6756 10.0295 13.48 10.3222C13.2844 10.615 13.0064 10.8431 12.6812 10.9778C12.3559 11.1125 11.998 11.1478 11.6528 11.0791C11.3075 11.0104 10.9903 10.8409 10.7414 10.592C10.4924 10.343 10.3229 10.0259 10.2542 9.68058C10.1855 9.33529 10.2208 8.97739 10.3555 8.65214C10.4902 8.32689 10.7184 8.04889 11.0111 7.8533Z" fill="black"/>
<path d="M14.8467 16.4467H16.2667C16.2649 15.6928 15.9642 14.9705 15.4306 14.4381C14.8969 13.9056 14.1738 13.6066 13.42 13.6066H10.5733C9.82013 13.6066 9.09776 13.9059 8.56516 14.4385C8.03256 14.9711 7.73334 15.6934 7.73334 16.4467H9.15334C9.15334 16.07 9.30295 15.7089 9.56925 15.4426C9.83555 15.1763 10.1967 15.0266 10.5733 15.0266H13.4267C13.8027 15.0284 14.1629 15.1786 14.4288 15.4445C14.6948 15.7104 14.8449 16.0706 14.8467 16.4467Z" fill="black"/>
<path fill-rule="evenodd" clip-rule="evenodd" d="M11.68 22.5933C11.7795 22.6423 11.8891 22.6674 12 22.6666C12.1069 22.6633 12.2117 22.636 12.3067 22.5867L15.5533 20.9667C17.093 20.2042 18.3881 19.0255 19.2919 17.5644C20.1957 16.1032 20.672 14.4181 20.6667 12.7V4.60665C20.6668 4.5101 20.6473 4.41454 20.6094 4.32574C20.5715 4.23695 20.5159 4.15678 20.4461 4.09009C20.3763 4.02339 20.2937 3.97156 20.2032 3.93774C20.1128 3.90392 20.0165 3.88881 19.92 3.89332H17.6067C16.6604 3.88832 15.7352 3.61308 14.94 3.09998L12.36 1.44665C12.2455 1.37367 12.1125 1.3349 11.9767 1.3349C11.8409 1.3349 11.7079 1.37367 11.5933 1.44665L9.01335 3.09998C8.21819 3.61308 7.293 3.88832 6.34668 3.89332H4.03335C3.84648 3.89681 3.66845 3.9735 3.53754 4.1069C3.40663 4.2403 3.33331 4.41975 3.33335 4.60665V12.7C3.32559 14.4178 3.79927 16.1034 4.70069 17.5657C5.60211 19.028 6.8952 20.2085 8.43334 20.9733L11.68 22.5933ZM4.74668 12.7V5.33332H6.34668C7.57546 5.32926 8.77692 4.97044 9.80668 4.29998L12 2.88665L14.1933 4.31332C15.2245 4.97907 16.4259 5.33323 17.6533 5.33332H19.2533V12.7C19.2574 14.1534 18.8542 15.579 18.0895 16.815C17.3248 18.0511 16.2291 19.0482 14.9267 19.6933L12 21.16L9.07335 19.6933C7.7709 19.0482 6.67523 18.0511 5.91051 16.815C5.14579 15.579 4.74262 14.1534 4.74668 12.7Z" fill="black"/>
</svg>
