<svg width="24" height="24" viewBox="0 0 24 24" fill="none" xmlns="http://www.w3.org/2000/svg">
<path d="M7.54688 10.2188C7.54688 9.95987 7.75674 9.75 8.01562 9.75H10.5938C10.6863 9.75 10.7768 9.77739 10.8538 9.82873L12 10.5929L13.1462 9.82873C13.2232 9.77739 13.3137 9.75 13.4062 9.75H15.9844C16.2433 9.75 16.4531 9.95987 16.4531 10.2188C16.4531 10.4776 16.2433 10.6875 15.9844 10.6875H13.5482L12.26 11.5463C12.1026 11.6512 11.8974 11.6512 11.74 11.5463L10.4518 10.6875H8.01562C7.75674 10.6875 7.54688 10.4776 7.54688 10.2188Z" fill="black"/>
<path d="M13.1484 19.3125C12.8896 19.3125 12.6797 19.5224 12.6797 19.7812C12.6797 20.0401 12.8896 20.25 13.1484 20.25H15.2578C15.5167 20.25 15.7266 20.0401 15.7266 19.7812C15.7266 19.5224 15.5167 19.3125 15.2578 19.3125H13.1484Z" fill="black"/>
<path fill-rule="evenodd" clip-rule="evenodd" d="M11.2734 17.4375C11.0146 17.4375 10.8047 17.6474 10.8047 17.9062V21.6562C10.8047 21.9151 11.0146 22.125 11.2734 22.125H17.1328C17.3917 22.125 17.6016 21.9151 17.6016 21.6562V17.9062C17.6016 17.6474 17.3917 17.4375 17.1328 17.4375H11.2734ZM11.7422 21.1875V18.375H16.6641V21.1875H11.7422Z" fill="black"/>
<path fill-rule="evenodd" clip-rule="evenodd" d="M7.89844 0C7.63955 0 7.42969 0.209867 7.42969 0.46875V1.28906H2.74219C2.4833 1.28906 2.27344 1.49893 2.27344 1.75781V3.63281C2.27344 3.8917 2.4833 4.10156 2.74219 4.10156H4.5V14.1562C4.5 14.4151 4.70987 14.625 4.96875 14.625H5.67188V15.5625H4.96875C4.70987 15.5625 4.5 15.7724 4.5 16.0312V23.5312C4.5 23.7901 4.70987 24 4.96875 24H19.0312C19.2901 24 19.5 23.7901 19.5 23.5312V16.0312C19.5 15.7724 19.2901 15.5625 19.0312 15.5625H18.3281V14.625H19.0312C19.2901 14.625 19.5 14.4151 19.5 14.1562V4.10156H21.2578C21.5167 4.10156 21.7266 3.8917 21.7266 3.63281V1.75781C21.7266 1.49893 21.5167 1.28906 21.2578 1.28906H16.5703V0.46875C16.5703 0.209867 16.3604 0 16.1016 0H7.89844ZM18.5625 4.10156H16.5703V4.92188C16.5703 5.18076 16.3604 5.39062 16.1016 5.39062H13.875V7.45312C13.875 7.57745 13.8256 7.69667 13.7377 7.78458L12.3315 9.19083C12.1484 9.37389 11.8516 9.37389 11.6685 9.19083L10.2623 7.78458C10.1744 7.69667 10.125 7.57745 10.125 7.45312V5.39062H7.89844C7.63955 5.39062 7.42969 5.18076 7.42969 4.92188V4.10156H5.4375V13.6875H7.54688V12.5156C7.54688 12.2567 7.75674 12.0469 8.01562 12.0469H10.5938C10.6863 12.0469 10.7768 12.0743 10.8538 12.1256L12 12.8898L13.1462 12.1256C13.2232 12.0743 13.3137 12.0469 13.4062 12.0469H15.9844C16.2433 12.0469 16.4531 12.2567 16.4531 12.5156V13.6875H18.5625V4.10156ZM20.7891 3.16406V2.22656H16.5703V3.16406H20.7891ZM15.6328 0.9375H8.36719V4.45312H15.6328V0.9375ZM7.42969 3.16406V2.22656H3.21094V3.16406H7.42969ZM12.9375 5.39062H11.0625V7.25896L12 8.19646L12.9375 7.25896V5.39062ZM15.5156 12.9844H13.5482L12.26 13.8431C12.1026 13.9481 11.8974 13.9481 11.74 13.8431L10.4518 12.9844H8.48438V15.5625H15.5156V12.9844ZM17.3906 14.625H16.4531V15.5625H17.3906V14.625ZM6.60938 15.5625H7.54688V14.625H6.60938V15.5625ZM5.4375 16.5V23.0625H18.5625V16.5H5.4375Z" fill="black"/>
</svg>
