<svg width="139" height="79" viewBox="0 0 139 79" fill="none" xmlns="http://www.w3.org/2000/svg">
<path d="M25.9728 39.469L1 43.8541V79H138V2.54224L114.166 39.2242C113.72 39.9102 112.901 40.2556 112.099 40.0962L93.1174 36.3271C92.8591 36.2758 92.6133 36.174 92.3944 36.0274L71.5655 22.0847C70.6882 21.4975 69.5055 21.6932 68.8642 22.5319L47.4015 50.6008C46.7656 51.4324 45.5961 51.6329 44.7195 51.0608L27.4119 39.764C26.987 39.4867 26.4726 39.3812 25.9728 39.469Z" fill="url(#paint0_linear_604_5722)" fill-opacity="0.25"/>
<path d="M1 43.6415L26.0033 39.2433C26.5038 39.1553 27.019 39.261 27.4443 39.5391L44.7735 50.8698C45.6507 51.4434 46.8219 51.2425 47.4578 50.4094L68.9485 22.2545C69.5898 21.4143 70.7742 21.2182 71.6521 21.8069L92.507 35.7916C92.7261 35.9385 92.972 36.0406 93.2307 36.092L112.228 39.8708C113.035 40.0314 113.858 39.6811 114.302 38.9882L138 2" stroke="#ED1C24" stroke-width="2"/>
<path d="M1 43.6415L26.0033 39.2433C26.5038 39.1553 27.019 39.261 27.4443 39.5391L44.7735 50.8698C45.6507 51.4434 46.8219 51.2425 47.4578 50.4094L68.9485 22.2545C69.5898 21.4143 70.7742 21.2182 71.6521 21.8069L92.507 35.7916C92.7261 35.9385 92.972 36.0406 93.2307 36.092L112.228 39.8708C113.035 40.0314 113.858 39.6811 114.302 38.9882L138 2" stroke="white" stroke-opacity="0.05" stroke-width="2"/>
<defs>
<linearGradient id="paint0_linear_604_5722" x1="69.5" y1="2.54224" x2="69.5" y2="79" gradientUnits="userSpaceOnUse">
<stop stop-color="#ED1C24" stop-opacity="0.7"/>
<stop offset="1" stop-color="#ED1C24" stop-opacity="0"/>
</linearGradient>
</defs>
</svg>
