<svg width="24" height="24" viewBox="0 0 24 24" fill="none" xmlns="http://www.w3.org/2000/svg">
<g clip-path="url(#clip0_818_5610)">
<path d="M22.6931 12.8403V8.54585L20.0971 7.92779C19.9797 7.58452 19.8406 7.24909 19.6805 6.92355L21.0794 4.65025L18.0428 1.61361L15.7695 3.01259C15.4439 2.85249 15.1085 2.71334 14.7653 2.59599L14.1472 -3.57628e-07H9.85282L9.23471 2.59599C8.89145 2.71334 8.55604 2.85249 8.23051 3.01259L5.95721 1.61361L2.92052 4.65025L4.31946 6.92355C4.15937 7.24909 4.02022 7.58452 3.90286 7.92779L1.30692 8.54581V12.8402L3.90291 13.4583C4.02027 13.8016 4.15942 14.137 4.31951 14.4626L2.91396 16.7466L5.0195 18.7633C4.79521 19.4357 4.68096 20.14 4.68117 20.8488V24H19.4138V20.8488C19.4138 20.1594 19.3058 19.4801 19.0974 18.8321L21.0691 16.7191L19.6805 14.4626C19.8406 14.1371 19.9797 13.8017 20.0971 13.4584L22.6931 12.8403ZM17.9881 22.5743H6.10692V20.8488C6.10692 19.86 6.38864 18.8971 6.92168 18.0643C7.87588 16.5733 9.50237 15.6832 11.2725 15.6832H12.8225C14.5927 15.6832 16.2191 16.5733 17.1733 18.0642C17.7058 18.8953 17.9886 19.8617 17.9881 20.8488V22.5743ZM12.0475 14.198C10.2295 14.198 8.75048 12.719 8.75048 10.901C8.75048 9.08303 10.2295 7.60396 12.0475 7.60396C13.8655 7.60396 15.3445 9.08303 15.3445 10.901C15.3445 12.719 13.8655 14.198 12.0475 14.198ZM19.2853 16.5408L18.4564 17.4292C18.4293 17.3846 18.4024 17.3397 18.3742 17.2957C17.5565 16.0181 16.3517 15.087 14.9646 14.6127C16.0634 13.7472 16.7702 12.4051 16.7702 10.901C16.7702 8.29687 14.6516 6.17822 12.0475 6.17822C9.44334 6.17822 7.32469 8.29687 7.32469 10.901C7.32469 12.4051 8.03148 13.7472 9.13034 14.6127C7.74324 15.087 6.53839 16.0181 5.72073 17.2957C5.69877 17.33 5.6781 17.365 5.65681 17.3996L4.7315 16.5133L5.96425 14.5101L5.03181 12.2616L2.73266 11.7141V9.67195L5.03186 9.12451L5.96429 6.87602L4.72494 4.86211L6.16898 3.41807L8.18294 4.65743L10.4314 3.72499L10.9789 1.42574H13.0211L13.5685 3.72494L15.817 4.65743L17.8309 3.41807L19.275 4.86211L18.0356 6.87602L18.9681 9.12451L21.2673 9.67195V11.7141L18.9681 12.2616L18.0356 14.5101L19.2853 16.5408Z" fill="white"/>
</g>
<defs>
<clipPath id="clip0_818_5610">
<rect width="24" height="24" fill="white"/>
</clipPath>
</defs>
</svg>
