<svg width="101" height="100" viewBox="0 0 101 100" fill="none" xmlns="http://www.w3.org/2000/svg">
<path d="M35.3846 43.8293H25.1307C24.7163 43.8293 24.3188 43.9939 24.0258 44.2869C23.7328 44.58 23.5682 44.9774 23.5682 45.3918V78.1203C23.5682 78.5347 23.7328 78.9321 24.0258 79.2252C24.3188 79.5182 24.7163 79.6828 25.1307 79.6828H35.3846C35.799 79.6828 36.1964 79.5182 36.4894 79.2252C36.7825 78.9321 36.9471 78.5347 36.9471 78.1203V45.3918C36.9471 44.9774 36.7825 44.58 36.4894 44.2869C36.1964 43.9939 35.799 43.8293 35.3846 43.8293ZM33.8221 76.558H26.6932V46.9545H33.8221V76.558ZM47.793 78.1207C47.793 78.5351 47.6283 78.9325 47.3353 79.2256C47.0423 79.5186 46.6449 79.6832 46.2305 79.6832H44.1705C43.7561 79.6832 43.3587 79.5186 43.0657 79.2256C42.7726 78.9325 42.608 78.5351 42.608 78.1207V49.6656C42.608 49.2512 42.7726 48.8538 43.0657 48.5608C43.3587 48.2677 43.7561 48.1031 44.1705 48.1031H54.4244C54.8388 48.1031 55.2362 48.2677 55.5293 48.5608C55.8223 48.8538 55.9869 49.2512 55.9869 49.6656V54.8123C55.9869 55.2267 55.8223 55.6241 55.5293 55.9172C55.2362 56.2102 54.8388 56.3748 54.4244 56.3748C54.01 56.3748 53.6126 56.2102 53.3196 55.9172C53.0265 55.6241 52.8619 55.2267 52.8619 54.8123V51.2281H45.733V76.558H46.2305C47.0936 76.5582 47.793 77.2578 47.793 78.1207ZM63.2102 30.3787H73.4641C73.8785 30.3787 74.2759 30.5433 74.5689 30.8364C74.8619 31.1294 75.0266 31.5268 75.0266 31.9412V45.9512C75.0266 46.3656 74.8619 46.763 74.5689 47.056C74.2759 47.3491 73.8785 47.5137 73.4641 47.5137C73.0497 47.5137 72.6522 47.3491 72.3592 47.056C72.0662 46.763 71.9016 46.3656 71.9016 45.9512V33.5037H64.7727V47.8604C64.7727 48.2748 64.608 48.6722 64.315 48.9652C64.022 49.2582 63.6246 49.4229 63.2102 49.4229C62.7958 49.4229 62.3983 49.2582 62.1053 48.9652C61.8123 48.6722 61.6477 48.2748 61.6477 47.8604V31.9412C61.6477 31.5268 61.8123 31.1294 62.1053 30.8364C62.3983 30.5433 62.7958 30.3787 63.2102 30.3787ZM16.3447 56.5246H6.09082C5.67642 56.5246 5.27899 56.6892 4.98597 56.9823C4.69294 57.2753 4.52832 57.6727 4.52832 58.0871V78.1201C4.52832 78.5345 4.69294 78.9319 4.98597 79.225C5.27899 79.518 5.67642 79.6826 6.09082 79.6826H16.3447C16.7591 79.6826 17.1566 79.518 17.4496 79.225C17.7426 78.9319 17.9072 78.5345 17.9072 78.1201V58.0871C17.9072 57.6727 17.7426 57.2753 17.4496 56.9823C17.1566 56.6892 16.7591 56.5246 16.3447 56.5246ZM14.7822 76.5578H7.65332V59.6498H14.7822V76.5578ZM60.5826 18.6662C60.5464 18.2534 60.6757 17.8431 60.942 17.5255C61.2084 17.208 61.5899 17.0093 62.0027 16.973L68.2006 16.4295C68.4311 16.4092 68.6632 16.4403 68.8802 16.5208C69.0972 16.6012 69.2935 16.7289 69.4551 16.8945C69.6167 17.0601 69.7396 17.2594 69.8148 17.4782C69.89 17.6971 69.9156 17.9298 69.8898 18.1598L69.1984 24.3428C69.1777 24.5483 69.1163 24.7477 69.018 24.9294C68.9196 25.111 68.7863 25.2714 68.6255 25.4012C68.4648 25.531 68.28 25.6276 68.0816 25.6855C67.8833 25.7434 67.6755 25.7614 67.4702 25.7384C67.2649 25.7155 67.0662 25.652 66.8856 25.5518C66.705 25.4515 66.546 25.3164 66.4179 25.1543C66.2898 24.9922 66.1952 24.8064 66.1394 24.6075C66.0836 24.4086 66.0678 24.2006 66.093 23.9955L66.2853 22.2742L50.407 38.2883C50.2035 38.4936 49.947 38.6384 49.6661 38.7066C49.3852 38.7748 49.0908 38.7638 48.8158 38.6746L30.5639 32.759L12.1777 47.0758C11.9039 47.2897 11.5663 47.4058 11.2188 47.4055C10.8932 47.4055 10.5758 47.3038 10.3108 47.1147C10.0458 46.9256 9.84651 46.6585 9.74068 46.3506C9.63486 46.0428 9.62781 45.7096 9.72052 45.3975C9.81322 45.0854 10.0011 44.8101 10.2578 44.61L29.2977 29.7844C29.499 29.6277 29.7356 29.5226 29.9869 29.4784C30.2382 29.4342 30.4965 29.4522 30.7393 29.5309L48.8648 35.4055L64.2234 19.9154L62.2754 20.0863C61.8626 20.1223 61.4525 19.9929 61.1351 19.7266C60.8177 19.4604 60.6189 19.0789 60.5826 18.6662ZM94.5744 87.8979C94.6881 88.2963 94.6388 88.7237 94.4374 89.0858C94.236 89.448 93.8991 89.7154 93.5006 89.8291L89.5008 90.9703C89.2728 91.0353 89.0331 91.0476 88.7997 91.0063C88.5663 90.965 88.3453 90.8711 88.1535 90.7318C87.9618 90.5924 87.8042 90.4112 87.6929 90.2019C87.5815 89.9926 87.5192 89.7607 87.5107 89.5238L87.3615 85.3672C87.3542 85.1621 87.3873 84.9576 87.4589 84.7653C87.5306 84.5731 87.6394 84.3968 87.7792 84.2466C87.919 84.0964 88.0871 83.9752 88.2737 83.8899C88.4603 83.8046 88.6619 83.757 88.867 83.7496C89.6293 83.7293 90.2818 84.2469 90.4455 84.9621C95.1654 76.8951 93.993 66.2834 87.2016 59.492C80.4705 52.7611 70.0314 51.4012 61.8158 56.1848C61.6385 56.288 61.4426 56.3553 61.2392 56.3829C61.0359 56.4104 60.8291 56.3976 60.6307 56.3452C60.4323 56.2929 60.2462 56.2019 60.083 56.0776C59.9197 55.9533 59.7825 55.798 59.6793 55.6207C59.4708 55.2626 59.4131 54.8364 59.5189 54.4357C59.6247 54.0351 59.8853 53.6929 60.2434 53.4844C69.6836 47.9875 81.6781 49.5492 89.4111 57.282C93.6998 61.5709 96.1998 67.268 96.4508 73.3238C96.6482 78.09 95.443 82.7486 93.0193 86.7662C93.7193 86.7422 94.3732 87.1932 94.5744 87.8979ZM85.0469 93.0389C85.1501 93.2162 85.2174 93.4121 85.2449 93.6155C85.2725 93.8188 85.2597 94.0256 85.2073 94.224C85.1549 94.4224 85.0639 94.6085 84.9396 94.7718C84.8152 94.935 84.66 95.0722 84.4826 95.1754C80.8098 97.3152 76.6348 98.4416 72.3842 98.4396C66.1416 98.4396 59.9605 96.0213 55.316 91.377C51.0273 87.0883 48.5273 81.3916 48.2764 75.3357C48.0789 70.5695 49.284 65.9105 51.7076 61.8928C51.007 61.9166 50.3535 61.4658 50.1525 60.7613C50.0389 60.3628 50.0882 59.9355 50.2895 59.5733C50.4909 59.2112 50.8279 58.9438 51.2264 58.8301L55.2262 57.6889C55.4541 57.6239 55.6939 57.6116 55.9273 57.653C56.1607 57.6944 56.3817 57.7883 56.5734 57.9277C56.7651 58.0671 56.9227 58.2483 57.034 58.4575C57.1454 58.6668 57.2077 58.8986 57.2162 59.1355L57.3654 63.2922C57.3789 63.6805 57.2473 64.0599 56.9962 64.3563C56.7451 64.6528 56.3926 64.8451 56.0073 64.8957C55.6221 64.9463 55.2319 64.8516 54.9127 64.63C54.5936 64.4084 54.3685 64.0759 54.2812 63.6973C49.5615 71.7643 50.734 82.376 57.5252 89.1672C64.2555 95.898 74.6941 97.258 82.91 92.4748C83.6561 92.041 84.6127 92.2934 85.0469 93.0389ZM88.0982 77.8412C88.3929 77.7278 88.6463 77.5277 88.825 77.2674C89.0038 77.0071 89.0994 76.6988 89.0994 76.383V72.2762C89.0994 71.9604 89.0038 71.6521 88.825 71.3918C88.6463 71.1315 88.3929 70.9314 88.0982 70.818L86.325 70.1355C86.0431 69.196 85.6665 68.2875 85.201 67.424L85.9729 65.6865C86.101 65.3979 86.1387 65.0773 86.081 64.7668C86.0233 64.4564 85.8729 64.1707 85.6496 63.9475L82.7453 61.0434C82.5219 60.8202 82.2363 60.6699 81.9259 60.6123C81.6154 60.5546 81.2948 60.5923 81.0062 60.7203L79.268 61.4924C78.405 61.0269 77.4968 60.6504 76.5576 60.3688L75.8748 58.5949C75.7614 58.3002 75.5613 58.0469 75.301 57.8681C75.0407 57.6894 74.7324 57.5938 74.4166 57.5938H70.3096C69.9938 57.5938 69.6855 57.6894 69.4252 57.8681C69.1649 58.0469 68.9648 58.3002 68.8514 58.5949L68.1686 60.3688C67.2294 60.6505 66.3212 61.0269 65.4582 61.4924L63.7199 60.7203C63.4314 60.592 63.1107 60.5542 62.8002 60.6119C62.4898 60.6696 62.2041 60.82 61.9809 61.0434L59.0768 63.9475C58.8535 64.1707 58.7031 64.4564 58.6454 64.7669C58.5877 65.0773 58.6254 65.3979 58.7535 65.6865L59.5256 67.4246C59.0601 68.2878 58.6835 69.196 58.4018 70.1353L56.6281 70.818C56.3335 70.9314 56.0801 71.1315 55.9013 71.3918C55.7226 71.6521 55.6269 71.9604 55.627 72.2762V76.383C55.6269 76.6988 55.7226 77.0071 55.9013 77.2674C56.0801 77.5277 56.3335 77.7278 56.6281 77.8412L58.4014 78.5238C58.6832 79.4634 59.0598 80.3719 59.5254 81.2354L58.7537 82.9729C58.6255 83.2614 58.5878 83.5821 58.6455 83.8925C58.7031 84.2029 58.8535 84.4886 59.0768 84.7119L61.9811 87.616C62.2044 87.8392 62.4901 87.9895 62.8005 88.0471C63.1109 88.1048 63.4315 88.0671 63.7201 87.9391L65.4584 87.167C66.3213 87.6325 67.2294 88.0089 68.1686 88.2906L68.8514 90.0647C68.9648 90.3593 69.1649 90.6127 69.4252 90.7914C69.6855 90.9702 69.9938 91.0658 70.3096 91.0658H74.4166C74.7324 91.0658 75.0407 90.9702 75.301 90.7914C75.5613 90.6127 75.7614 90.3593 75.8748 90.0647L76.5574 88.2914C77.497 88.0096 78.4055 87.633 79.2689 87.1674L81.0064 87.9391C81.295 88.0672 81.6156 88.105 81.9261 88.0473C82.2365 87.9896 82.5222 87.8393 82.7455 87.616L85.6496 84.7119C85.8729 84.4886 86.0232 84.2029 86.0809 83.8925C86.1386 83.5821 86.1008 83.2614 85.9727 82.9729L85.2006 81.2344C85.666 80.3714 86.0425 79.4634 86.3242 78.5242L88.0982 77.8412ZM85.9744 75.3102L84.4611 75.8926C84.2243 75.9837 84.0132 76.1311 83.8462 76.3222C83.6791 76.5132 83.5611 76.742 83.5023 76.9889C83.2219 78.1669 82.7553 79.2926 82.1199 80.3234C81.9869 80.5396 81.9084 80.7848 81.8915 81.038C81.8745 81.2913 81.9194 81.5448 82.0225 81.7768L82.6814 83.2606L81.2945 84.6475L79.8117 83.9889C79.5798 83.8858 79.3261 83.8408 79.0729 83.8578C78.8196 83.8748 78.5743 83.9533 78.3582 84.0865C77.3272 84.7223 76.2012 85.1891 75.0229 85.4693C74.776 85.528 74.5471 85.646 74.356 85.813C74.165 85.98 74.0175 86.1911 73.9264 86.4279L73.3441 87.9406H71.3826L70.8002 86.4271C70.7091 86.1903 70.5616 85.9793 70.3706 85.8123C70.1796 85.6452 69.9508 85.5273 69.7039 85.4686C68.5259 85.1881 67.4002 84.7215 66.3693 84.0861C66.1532 83.9531 65.9079 83.8746 65.6547 83.8577C65.4015 83.8407 65.148 83.8857 64.916 83.9887L63.4326 84.6475L62.0455 83.2606L62.7041 81.7777C62.8071 81.5458 62.8521 81.2922 62.8351 81.0389C62.8181 80.7856 62.7396 80.5403 62.6064 80.3242C61.9708 79.2932 61.504 78.1672 61.2238 76.9889C61.165 76.742 61.047 76.5132 60.88 76.3222C60.7129 76.1312 60.5019 75.9837 60.265 75.8926L58.7523 75.3103V73.349L60.2654 72.7666C60.5023 72.6754 60.7133 72.5279 60.8804 72.3369C61.0474 72.1458 61.1654 71.917 61.2242 71.6701C61.5045 70.4921 61.9712 69.3664 62.6068 68.3357C62.7399 68.1196 62.8183 67.8743 62.8353 67.6211C62.8523 67.3678 62.8074 67.1142 62.7045 66.8822L62.0455 65.3986L63.4324 64.0117L64.916 64.6707C65.148 64.7738 65.4016 64.8189 65.6549 64.8018C65.9081 64.7848 66.1535 64.7063 66.3695 64.5731C67.4002 63.9376 68.5258 63.471 69.7037 63.1908C69.9506 63.1321 70.1795 63.0141 70.3705 62.847C70.5616 62.68 70.709 62.4689 70.8002 62.232L71.3826 60.7188H73.3439L73.9264 62.232C74.0175 62.4689 74.165 62.68 74.3561 62.847C74.5471 63.0141 74.776 63.1321 75.0229 63.1908C76.2008 63.471 77.3265 63.9376 78.3572 64.5731C78.5733 64.7062 78.8186 64.7847 79.0719 64.8018C79.3252 64.8188 79.5788 64.7738 79.8107 64.6707L81.2943 64.0117L82.6813 65.3986L82.0227 66.8816C81.9196 67.1136 81.8746 67.3672 81.8917 67.6205C81.9087 67.8737 81.9872 68.119 82.1203 68.3352C82.7559 69.3661 83.2227 70.492 83.5029 71.6703C83.5617 71.9172 83.6796 72.1461 83.8467 72.3371C84.0138 72.5282 84.2249 72.6757 84.4617 72.7668L85.9744 73.349V75.3102ZM72.3633 65.6047C67.5523 65.6047 63.6383 69.5187 63.6383 74.3297C63.6383 79.1406 67.5523 83.0547 72.3633 83.0547C77.1742 83.0547 81.0883 79.1406 81.0883 74.3297C81.0883 69.5187 77.1742 65.6047 72.3633 65.6047ZM72.3633 79.9295C69.2754 79.9295 66.7633 77.4174 66.7633 74.3295C66.7633 71.2416 69.2754 68.7295 72.3633 68.7295C75.4512 68.7295 77.9633 71.2416 77.9633 74.3295C77.9633 77.4174 75.4512 79.9295 72.3633 79.9295ZM42.5754 28.198C49.9189 28.198 55.8932 22.2236 55.8932 14.8803C55.8932 7.53691 49.9188 1.5625 42.5754 1.5625C35.232 1.5625 29.2576 7.53691 29.2576 14.8805C29.2576 22.2236 35.2318 28.198 42.5754 28.198ZM42.5754 4.6875C48.1957 4.6875 52.7682 9.25996 52.7682 14.8805C52.7682 20.5006 48.1957 25.0732 42.5754 25.0732C36.9551 25.0732 32.3826 20.5008 32.3826 14.8805C32.3826 9.25996 36.9551 4.6875 42.5754 4.6875ZM41.0129 14.8803V7.89629C41.0129 7.48189 41.1775 7.08446 41.4705 6.79143C41.7636 6.49841 42.161 6.33379 42.5754 6.33379C42.9898 6.33379 43.3872 6.49841 43.6802 6.79143C43.9733 7.08446 44.1379 7.48189 44.1379 7.89629V13.9781L48.4107 16.4453C48.7696 16.6525 49.0315 16.9938 49.1387 17.3941C49.2459 17.7944 49.1897 18.2209 48.9825 18.5798C48.8799 18.7575 48.7433 18.9132 48.5805 19.0381C48.4177 19.163 48.2319 19.2546 48.0337 19.3077C47.6334 19.415 47.2069 19.3588 46.848 19.1516L41.7939 16.2336C41.5565 16.0964 41.3593 15.8991 41.2222 15.6615C41.0851 15.424 41.0129 15.1545 41.0129 14.8803ZM14.4156 17.2361C14.83 17.2361 15.2275 17.4008 15.5205 17.6938C15.8135 17.9868 15.9781 18.3842 15.9781 18.7986C15.9781 19.213 15.8135 19.6105 15.5205 19.9035C15.2275 20.1965 14.83 20.3611 14.4156 20.3611H12.3758C11.9614 20.3611 11.564 20.1965 11.2709 19.9035C10.9779 19.6105 10.8133 19.213 10.8133 18.7986C10.8133 18.3842 10.9779 17.9868 11.2709 17.6938C11.564 17.4008 11.9614 17.2361 12.3758 17.2361H14.4156ZM19.7932 17.2361H26.6859C27.1003 17.2361 27.4978 17.4008 27.7908 17.6938C28.0838 17.9868 28.2484 18.3842 28.2484 18.7986C28.2484 19.213 28.0838 19.6105 27.7908 19.9035C27.4978 20.1965 27.1003 20.3611 26.6859 20.3611H19.7932C19.3788 20.3611 18.9813 20.1965 18.6883 19.9035C18.3953 19.6105 18.2307 19.213 18.2307 18.7986C18.2307 18.3842 18.3953 17.9868 18.6883 17.6938C18.9813 17.4008 19.3788 17.2361 19.7932 17.2361ZM20.765 12.5246C20.3506 12.5246 19.9532 12.36 19.6602 12.067C19.3672 11.7739 19.2025 11.3765 19.2025 10.9621C19.2025 10.5477 19.3672 10.1503 19.6602 9.85725C19.9532 9.56423 20.3506 9.39961 20.765 9.39961H24.9725C25.3869 9.39961 25.7843 9.56423 26.0773 9.85725C26.3703 10.1503 26.535 10.5477 26.535 10.9621C26.535 11.3765 26.3703 11.7739 26.0773 12.067C25.7843 12.36 25.3869 12.5246 24.9725 12.5246H20.765ZM7.21465 26.6352C7.21465 26.2208 7.37927 25.8233 7.67229 25.5303C7.96532 25.2373 8.36275 25.0727 8.77715 25.0727H20.0033C20.4177 25.0727 20.8151 25.2373 21.1082 25.5303C21.4012 25.8233 21.5658 26.2208 21.5658 26.6352C21.5658 27.0496 21.4012 27.447 21.1082 27.74C20.8151 28.033 20.4177 28.1977 20.0033 28.1977H8.77715C8.36275 28.1977 7.96532 28.033 7.67229 27.74C7.37927 27.447 7.21465 27.0496 7.21465 26.6352ZM25.1412 26.6352C25.1412 26.2208 25.3058 25.8233 25.5989 25.5303C25.8919 25.2373 26.2893 25.0727 26.7037 25.0727H28.8789C29.2933 25.0727 29.6907 25.2373 29.9838 25.5303C30.2768 25.8233 30.4414 26.2208 30.4414 26.6352C30.4414 27.0496 30.2768 27.447 29.9838 27.74C29.6907 28.033 29.2933 28.1977 28.8789 28.1977H26.7037C26.2893 28.1977 25.8919 28.033 25.5989 27.74C25.3058 27.447 25.1412 27.0496 25.1412 26.6352ZM23.4369 3.12539C23.4369 2.71099 23.6015 2.31356 23.8946 2.02054C24.1876 1.72751 24.585 1.56289 24.9994 1.56289H30.733C31.1474 1.56289 31.5448 1.72751 31.8379 2.02054C32.1309 2.31356 32.2955 2.71099 32.2955 3.12539C32.2955 3.53979 32.1309 3.93722 31.8379 4.23024C31.5448 4.52327 31.1474 4.68789 30.733 4.68789H24.9994C24.585 4.68789 24.1876 4.52327 23.8946 4.23024C23.6015 3.93722 23.4369 3.53979 23.4369 3.12539ZM10.8133 3.12539C10.8133 2.71099 10.9779 2.31356 11.2709 2.02054C11.564 1.72751 11.9614 1.56289 12.3758 1.56289H20.4572C20.8716 1.56289 21.2691 1.72751 21.5621 2.02054C21.8551 2.31356 22.0197 2.71099 22.0197 3.12539C22.0197 3.53979 21.8551 3.93722 21.5621 4.23024C21.2691 4.52327 20.8716 4.68789 20.4572 4.68789H12.3758C11.9614 4.68789 11.564 4.52327 11.2709 4.23024C10.9779 3.93722 10.8133 3.53979 10.8133 3.12539ZM7.21465 10.9621C7.21465 10.5477 7.37927 10.1503 7.67229 9.85725C7.96532 9.56423 8.36275 9.39961 8.77715 9.39961H14.9471C15.3615 9.39961 15.7589 9.56423 16.0519 9.85725C16.345 10.1503 16.5096 10.5477 16.5096 10.9621C16.5096 11.3765 16.345 11.7739 16.0519 12.067C15.7589 12.36 15.3615 12.5246 14.9471 12.5246H8.77715C8.36275 12.5246 7.96532 12.36 7.67229 12.067C7.37927 11.7739 7.21465 11.3765 7.21465 10.9621Z" fill="black"/>
</svg>
