<svg width="64" height="64" viewBox="0 0 64 64" fill="none" xmlns="http://www.w3.org/2000/svg">
<g opacity="0.4">
<path d="M20.125 27.25C20.125 26.5596 20.6846 26 21.375 26H28.25C28.4968 26 28.738 26.073 28.9434 26.2099L32 28.2477L35.0566 26.2099C35.262 26.073 35.5032 26 35.75 26H42.625C43.3154 26 43.875 26.5596 43.875 27.25C43.875 27.9404 43.3154 28.5 42.625 28.5H36.1285L32.6934 30.7901C32.2735 31.07 31.7265 31.07 31.3066 30.7901L27.8715 28.5H21.375C20.6846 28.5 20.125 27.9404 20.125 27.25Z" fill="black"/>
<path d="M35.0625 51.5C34.3721 51.5 33.8125 52.0596 33.8125 52.75C33.8125 53.4404 34.3721 54 35.0625 54H40.6875C41.3779 54 41.9375 53.4404 41.9375 52.75C41.9375 52.0596 41.3779 51.5 40.6875 51.5H35.0625Z" fill="black"/>
<path fill-rule="evenodd" clip-rule="evenodd" d="M30.0625 46.5C29.3721 46.5 28.8125 47.0596 28.8125 47.75V57.75C28.8125 58.4404 29.3721 59 30.0625 59H45.6875C46.3779 59 46.9375 58.4404 46.9375 57.75V47.75C46.9375 47.0596 46.3779 46.5 45.6875 46.5H30.0625ZM31.3125 56.5V49H44.4375V56.5H31.3125Z" fill="black"/>
<path fill-rule="evenodd" clip-rule="evenodd" d="M21.0625 0C20.3721 0 19.8125 0.559644 19.8125 1.25V3.4375H7.3125C6.62214 3.4375 6.0625 3.99714 6.0625 4.6875V9.6875C6.0625 10.3779 6.62214 10.9375 7.3125 10.9375H12V37.75C12 38.4404 12.5596 39 13.25 39H15.125V41.5H13.25C12.5596 41.5 12 42.0596 12 42.75V62.75C12 63.4404 12.5596 64 13.25 64H50.75C51.4404 64 52 63.4404 52 62.75V42.75C52 42.0596 51.4404 41.5 50.75 41.5H48.875V39H50.75C51.4404 39 52 38.4404 52 37.75V10.9375H56.6875C57.3779 10.9375 57.9375 10.3779 57.9375 9.6875V4.6875C57.9375 3.99714 57.3779 3.4375 56.6875 3.4375H44.1875V1.25C44.1875 0.559644 43.6279 0 42.9375 0H21.0625ZM49.5 10.9375H44.1875V13.125C44.1875 13.8154 43.6279 14.375 42.9375 14.375H37V19.875C37 20.2065 36.8683 20.5245 36.6339 20.7589L32.8839 24.5089C32.3957 24.997 31.6043 24.997 31.1161 24.5089L27.3661 20.7589C27.1317 20.5245 27 20.2065 27 19.875V14.375H21.0625C20.3721 14.375 19.8125 13.8154 19.8125 13.125V10.9375H14.5V36.5H20.125V33.375C20.125 32.6846 20.6846 32.125 21.375 32.125H28.25C28.4968 32.125 28.738 32.198 28.9434 32.3349L32 34.3727L35.0566 32.3349C35.262 32.198 35.5032 32.125 35.75 32.125H42.625C43.3154 32.125 43.875 32.6846 43.875 33.375V36.5H49.5V10.9375ZM55.4375 8.4375V5.9375H44.1875V8.4375H55.4375ZM41.6875 2.5H22.3125V11.875H41.6875V2.5ZM19.8125 8.4375V5.9375H8.5625V8.4375H19.8125ZM34.5 14.375H29.5V19.3572L32 21.8572L34.5 19.3572V14.375ZM41.375 34.625H36.1285L32.6934 36.9151C32.2735 37.195 31.7265 37.195 31.3066 36.9151L27.8715 34.625H22.625V41.5H41.375V34.625ZM46.375 39H43.875V41.5H46.375V39ZM17.625 41.5H20.125V39H17.625V41.5ZM14.5 44V61.5H49.5V44H14.5Z" fill="black"/>
</g>
</svg>
