<svg width="101" height="100" viewBox="0 0 101 100" fill="none" xmlns="http://www.w3.org/2000/svg">
<g clip-path="url(#clip0_527_22793)">
<path fill-rule="evenodd" clip-rule="evenodd" d="M94.1178 18.9074C93.4791 15.2859 90.3119 12.5252 86.51 12.5252H86.4092V10.8588C86.4092 8.32441 84.3473 6.2627 81.8131 6.2627C79.2789 6.2627 77.217 8.32461 77.217 10.8588V12.5252H22.3182C21.9297 12.5252 21.5571 12.6795 21.2824 12.9542C21.0077 13.229 20.8533 13.6015 20.8533 13.99C20.8533 14.3785 21.0077 14.7511 21.2824 15.0258C21.5571 15.3006 21.9297 15.4549 22.3182 15.4549H77.2168V17.1213C77.2168 19.6557 79.2787 21.7174 81.8129 21.7174C84.3471 21.7174 86.409 19.6555 86.409 17.1213V15.4549H86.5098C89.1553 15.4549 91.3074 17.6072 91.3074 20.2525V25.0504H84.9439C84.5554 25.0504 84.1829 25.2047 83.9081 25.4794C83.6334 25.7541 83.4791 26.1267 83.4791 26.5152C83.4791 26.9037 83.6334 27.2763 83.9081 27.551C84.1829 27.8257 84.5554 27.9801 84.9439 27.9801H91.3074V68.8885H83.3783C79.1174 68.8885 75.651 72.3551 75.651 76.616V84.5451H8.22734C5.58203 84.5451 3.42969 82.393 3.42969 79.7475V27.9801H78.6818C79.0703 27.9801 79.4429 27.8257 79.7176 27.551C79.9923 27.2763 80.1467 26.9037 80.1467 26.5152C80.1467 26.1267 79.9923 25.7541 79.7176 25.4794C79.4429 25.2047 79.0703 25.0504 78.6818 25.0504H3.42969V20.2525C3.42969 17.607 5.58203 15.4549 8.22734 15.4549H8.32813V17.1213C8.32813 19.6557 10.39 21.7174 12.9242 21.7174C15.4584 21.7174 17.5203 19.6555 17.5203 17.1213V10.8588C17.5203 8.32441 15.4584 6.2627 12.9242 6.2627C10.39 6.2627 8.32832 8.32441 8.32832 10.8588V12.5252H8.22754C3.9666 12.5252 0.5 15.9916 0.5 20.2525V79.7473C0.5 83.5492 3.26074 86.7164 6.88223 87.3551C7.5209 90.9766 10.6881 93.7373 14.49 93.7373H92.7727C97.0336 93.7373 100.5 90.2707 100.5 86.01V26.5152C100.5 22.7133 97.7393 19.5461 94.1178 18.9074ZM83.4795 17.1213C83.4795 18.0402 82.7318 18.7877 81.8131 18.7877C80.8943 18.7877 80.1467 18.04 80.1467 17.1213V10.8588C80.1467 9.93984 80.8943 9.19238 81.8131 9.19238C82.7318 9.19238 83.4795 9.94004 83.4795 10.8588V17.1213ZM11.258 10.8588C11.258 9.93984 12.0057 9.19238 12.9244 9.19238C13.8432 9.19238 14.5908 9.94004 14.5908 10.8588V17.1213C14.5908 18.0402 13.8432 18.7877 12.9244 18.7877C12.0057 18.7877 11.258 18.04 11.258 17.1213V10.8588ZM78.5809 76.616C78.5809 73.9705 80.7332 71.8182 83.3785 71.8182H89.2359L78.5807 82.4734L78.5809 76.616ZM97.5703 86.01C97.5703 88.6555 95.418 90.8076 92.7727 90.8076H14.49C12.3553 90.8076 10.5426 89.4059 9.92188 87.4748H77.1162C77.3086 87.4748 77.4991 87.4369 77.6768 87.3633C77.8545 87.2897 78.016 87.1817 78.152 87.0457L93.8084 71.3891C93.9439 71.2529 94.0513 71.0913 94.1243 70.9136C94.1973 70.7358 94.2346 70.5455 94.234 70.3533H94.2375V21.9471C96.1686 22.5678 97.5703 24.3807 97.5703 26.5154V86.01Z" fill="black"/>
<path fill-rule="evenodd" clip-rule="evenodd" d="M37.9507 76.557C38.3138 76.6953 38.7169 76.6837 39.0714 76.5247C39.4258 76.3658 39.7027 76.0726 39.841 75.7096L40.4898 74.0058H44.9714L45.6129 75.7053C45.718 75.9838 45.9055 76.2238 46.1504 76.3931C46.3953 76.5625 46.686 76.6532 46.9837 76.6533C47.2207 76.6533 47.4541 76.5957 47.664 76.4857C47.8738 76.3756 48.0538 76.2162 48.1886 76.0213C48.3233 75.8264 48.4087 75.6017 48.4375 75.3664C48.4663 75.1312 48.4376 74.8926 48.3539 74.6709L44.3425 64.0418C44.2197 63.718 44.0011 63.4394 43.7159 63.243C43.4306 63.0467 43.0923 62.9419 42.7461 62.9428H42.7443C42.399 62.9423 42.0617 63.0468 41.7771 63.2424C41.4926 63.438 41.2742 63.7155 41.1509 64.0381L37.1029 74.6666C36.9647 75.0297 36.9765 75.4328 37.1354 75.7873C37.2944 76.1418 37.5877 76.4187 37.9507 76.557ZM43.866 71.0762H41.6056L42.741 68.0951L43.866 71.0762Z" fill="black"/>
<path d="M63.974 76.6529C66.3027 76.6529 68.2591 75.1625 68.6257 73.109C68.9025 71.5592 68.2048 69.5367 65.417 68.5084C64.1129 68.0273 62.8974 67.5039 62.5035 67.3318C62.2683 67.1332 62.2769 66.8621 62.2933 66.7478C62.3175 66.5799 62.4414 66.1685 63.0685 65.9795C64.524 65.5414 65.8841 66.6096 65.9273 66.6439C66.2258 66.8912 66.6101 67.01 66.9961 66.9745C67.3821 66.9389 67.7382 66.7518 67.9865 66.4542C68.2348 66.1566 68.355 65.7727 68.3208 65.3866C68.2867 65.0005 68.1008 64.6437 67.8041 64.3943C67.7003 64.307 65.2283 62.2689 62.2234 63.1742C60.691 63.6359 59.6066 64.8457 59.3933 66.3314C59.1929 67.7281 59.7984 69.0719 60.9738 69.8381C61.0384 69.8803 61.1064 69.9172 61.1769 69.9486C61.2394 69.9765 62.7275 70.6389 64.4031 71.257C64.7504 71.3851 65.8728 71.8599 65.7418 72.5941C65.6427 73.149 64.9545 73.7232 63.974 73.7232C62.9351 73.7232 61.9365 73.3056 61.3027 72.6064C61.1735 72.4639 61.0175 72.3482 60.8436 72.2659C60.6697 72.1837 60.4813 72.1365 60.2892 72.127C60.0971 72.1176 59.9049 72.1461 59.7238 72.2109C59.5427 72.2757 59.3761 72.3755 59.2336 72.5047C59.091 72.6339 58.9753 72.7898 58.8931 72.9637C58.8108 73.1376 58.7636 73.326 58.7541 73.5182C58.7447 73.7103 58.7732 73.9024 58.838 74.0836C58.9028 74.2647 59.0026 74.4313 59.1318 74.5738C60.3295 75.8951 62.0943 76.6529 63.974 76.6529Z" fill="black"/>
<path d="M52.9668 76.6529H52.9705C53.3583 76.6529 53.7303 76.499 54.0049 76.2251C54.2795 75.9512 54.4343 75.5796 54.4353 75.1918L54.4476 70.1178L57.6267 65.2342C57.7331 65.073 57.8065 64.8923 57.8428 64.7026C57.879 64.513 57.8774 64.318 57.8381 64.1289C57.7987 63.9398 57.7223 63.7604 57.6134 63.601C57.5044 63.4415 57.365 63.3052 57.2031 63.1999C57.0413 63.0945 56.8602 63.0222 56.6703 62.9871C56.4804 62.952 56.2854 62.9548 56.0966 62.9953C55.9078 63.0358 55.7288 63.1133 55.57 63.2232C55.4113 63.3332 55.2758 63.4734 55.1714 63.6359L52.982 66.9994L50.767 63.607C50.6626 63.4442 50.527 63.3037 50.368 63.1936C50.209 63.0835 50.0298 63.006 49.8407 62.9655C49.6517 62.925 49.4564 62.9223 49.2663 62.9577C49.0762 62.993 48.8949 63.0656 48.733 63.1713C48.5711 63.2771 48.4317 63.4138 48.3229 63.5737C48.2141 63.7335 48.1381 63.9134 48.0991 64.1028C48.0602 64.2922 48.0591 64.4874 48.096 64.6773C48.1329 64.8671 48.207 65.0477 48.314 65.2088L51.5181 70.1158L51.5058 75.1848C51.5053 75.3771 51.5427 75.5677 51.6158 75.7456C51.6889 75.9235 51.7964 76.0852 51.9321 76.2215C52.0678 76.3579 52.229 76.4662 52.4065 76.5402C52.584 76.6142 52.7744 76.6525 52.9668 76.6529Z" fill="black"/>
<path d="M44.9365 51.6213C44.9365 49.6473 44.0347 47.8801 42.6216 46.7096C44.0347 45.539 44.9365 43.7717 44.9365 41.7978C44.9365 38.2818 42.0759 35.4213 38.5597 35.4213C35.5195 35.4213 32.8879 37.584 32.3027 40.5637C32.2279 40.9449 32.3075 41.3402 32.5241 41.6627C32.7407 41.9852 33.0766 42.2085 33.4578 42.2834C33.839 42.3582 34.2343 42.2785 34.5568 42.0619C34.8793 41.8453 35.1025 41.5095 35.1775 41.1283C35.4935 39.5191 36.916 38.3512 38.5597 38.3512C40.4603 38.3512 42.0068 39.8974 42.0068 41.798C42.0068 43.6986 40.4605 45.2449 38.5597 45.2449C38.1712 45.2449 37.7986 45.3992 37.5239 45.6739C37.2492 45.9487 37.0949 46.3213 37.0949 46.7098C37.0949 47.0983 37.2492 47.4708 37.5239 47.7456C37.7986 48.0203 38.1712 48.1746 38.5597 48.1746C40.4603 48.1746 42.0068 49.7209 42.0068 51.6215C42.0068 53.5221 40.4605 55.0685 38.5597 55.0685C36.8496 55.0685 35.382 53.7941 35.1461 52.1045C35.1239 51.9444 35.1127 51.7831 35.1127 51.6215C35.1127 51.233 34.9583 50.8604 34.6836 50.5857C34.4089 50.311 34.0363 50.1566 33.6478 50.1566C33.2593 50.1566 32.8867 50.311 32.612 50.5857C32.3373 50.8604 32.183 51.233 32.183 51.6215C32.183 51.9178 32.2037 52.2162 32.2443 52.509C32.681 55.6383 35.3961 57.998 38.5595 57.998C42.0759 57.998 44.9365 55.1373 44.9365 51.6213Z" fill="black"/>
<path fill-rule="evenodd" clip-rule="evenodd" d="M62.1398 51.148V42.2707C62.1398 38.4021 58.9925 35.2551 55.124 35.2551C51.2554 35.2551 48.1082 38.4023 48.1082 42.2707V51.148C48.1082 55.0166 51.2554 58.1639 55.124 58.1639C58.9925 58.1639 62.1398 55.0166 62.1398 51.148ZM59.2101 51.148C59.2101 53.4012 57.3771 55.2342 55.124 55.2342C52.8709 55.2342 51.0378 53.4012 51.0378 51.148V42.2707C51.0378 40.0176 52.8709 38.1847 55.124 38.1847C57.3771 38.1847 59.2101 40.0178 59.2101 42.2707V51.148Z" fill="black"/>
<path fill-rule="evenodd" clip-rule="evenodd" d="M27.138 63.1022H30.1009C33.5039 63.1022 35.7904 65.793 35.7906 69.7977C35.7906 73.6074 33.4449 76.4137 30.2132 76.4701C29.4089 76.4843 27.4555 76.4922 27.1915 76.4933L27.1648 76.4934H27.1593C26.7717 76.4933 26.4 76.3397 26.1254 76.0661C25.8509 75.7926 25.6959 75.4214 25.6945 75.0338C25.6945 75.0338 25.6808 71.2406 25.6808 69.7861C25.6808 68.5936 25.6732 64.5697 25.6732 64.5697C25.6728 64.3771 25.7103 64.1863 25.7838 64.0082C25.8572 63.8302 25.965 63.6683 26.1011 63.532C26.2372 63.3957 26.3988 63.2875 26.5767 63.2138C26.7547 63.14 26.9454 63.1021 27.138 63.1022ZM28.6191 73.5561C29.1957 73.5524 29.8042 73.5471 30.1619 73.5408C31.5052 73.5174 32.8607 72.351 32.8609 69.7979C32.8609 68.9145 32.6619 66.032 30.1011 66.032H28.6056C28.6078 67.309 28.6105 69.0651 28.6105 69.7863C28.6118 71.0429 28.6147 72.2995 28.6191 73.5561Z" fill="black"/>
</g>
<defs>
<clipPath id="clip0_527_22793">
<rect width="100" height="100" fill="white" transform="translate(0.5)"/>
</clipPath>
</defs>
</svg>
