<svg width="48" height="48" viewBox="0 0 48 48" fill="none" xmlns="http://www.w3.org/2000/svg">
<rect x="0.5" y="0.5" width="47" height="47" rx="23.5" stroke="white"/>
<path d="M18.0625 21.625C18.0625 21.2798 18.3423 21 18.6875 21H22.125C22.2484 21 22.369 21.0365 22.4717 21.105L24 22.1238L25.5283 21.105C25.631 21.0365 25.7516 21 25.875 21H29.3125C29.6577 21 29.9375 21.2798 29.9375 21.625C29.9375 21.9702 29.6577 22.25 29.3125 22.25H26.0642L24.3467 23.395C24.1368 23.535 23.8632 23.535 23.6533 23.395L21.9358 22.25H18.6875C18.3423 22.25 18.0625 21.9702 18.0625 21.625Z" fill="white"/>
<path d="M25.5312 33.75C25.1861 33.75 24.9062 34.0298 24.9062 34.375C24.9062 34.7202 25.1861 35 25.5312 35H28.3438C28.6889 35 28.9688 34.7202 28.9688 34.375C28.9688 34.0298 28.6889 33.75 28.3438 33.75H25.5312Z" fill="white"/>
<path fill-rule="evenodd" clip-rule="evenodd" d="M23.0312 31.25C22.6861 31.25 22.4062 31.5298 22.4062 31.875V36.875C22.4062 37.2202 22.6861 37.5 23.0312 37.5H30.8438C31.1889 37.5 31.4688 37.2202 31.4688 36.875V31.875C31.4688 31.5298 31.1889 31.25 30.8438 31.25H23.0312ZM23.6562 36.25V32.5H30.2188V36.25H23.6562Z" fill="white"/>
<path fill-rule="evenodd" clip-rule="evenodd" d="M18.5312 8C18.1861 8 17.9062 8.27982 17.9062 8.625V9.71875H11.6562C11.3111 9.71875 11.0312 9.99857 11.0312 10.3438V12.8438C11.0312 13.1889 11.3111 13.4688 11.6562 13.4688H14V26.875C14 27.2202 14.2798 27.5 14.625 27.5H15.5625V28.75H14.625C14.2798 28.75 14 29.0298 14 29.375V39.375C14 39.7202 14.2798 40 14.625 40H33.375C33.7202 40 34 39.7202 34 39.375V29.375C34 29.0298 33.7202 28.75 33.375 28.75H32.4375V27.5H33.375C33.7202 27.5 34 27.2202 34 26.875V13.4688H36.3438C36.6889 13.4688 36.9688 13.1889 36.9688 12.8438V10.3438C36.9688 9.99857 36.6889 9.71875 36.3438 9.71875H30.0938V8.625C30.0938 8.27982 29.8139 8 29.4688 8H18.5312ZM32.75 13.4688H30.0938V14.5625C30.0938 14.9077 29.8139 15.1875 29.4688 15.1875H26.5V17.9375C26.5 18.1033 26.4342 18.2622 26.3169 18.3794L24.4419 20.2544C24.1979 20.4985 23.8021 20.4985 23.5581 20.2544L21.6831 18.3794C21.5658 18.2622 21.5 18.1033 21.5 17.9375V15.1875H18.5312C18.1861 15.1875 17.9062 14.9077 17.9062 14.5625V13.4688H15.25V26.25H18.0625V24.6875C18.0625 24.3423 18.3423 24.0625 18.6875 24.0625H22.125C22.2484 24.0625 22.369 24.099 22.4717 24.1675L24 25.1863L25.5283 24.1675C25.631 24.099 25.7516 24.0625 25.875 24.0625H29.3125C29.6577 24.0625 29.9375 24.3423 29.9375 24.6875V26.25H32.75V13.4688ZM35.7188 12.2188V10.9688H30.0938V12.2188H35.7188ZM28.8438 9.25H19.1562V13.9375H28.8438V9.25ZM17.9062 12.2188V10.9688H12.2812V12.2188H17.9062ZM25.25 15.1875H22.75V17.6786L24 18.9286L25.25 17.6786V15.1875ZM28.6875 25.3125H26.0642L24.3467 26.4575C24.1367 26.5975 23.8632 26.5975 23.6533 26.4575L21.9358 25.3125H19.3125V28.75H28.6875V25.3125ZM31.1875 27.5H29.9375V28.75H31.1875V27.5ZM16.8125 28.75H18.0625V27.5H16.8125V28.75ZM15.25 30V38.75H32.75V30H15.25Z" fill="white"/>
</svg>
