<svg width="24" height="24" viewBox="0 0 24 24" fill="none" xmlns="http://www.w3.org/2000/svg">
<g clip-path="url(#clip0_818_5606)">
<path d="M23.8939 13.6052C23.5933 15.8494 22.6627 17.9576 21.2028 19.702C19.1455 22.1602 16.2541 23.67 13.0612 23.9535C12.7014 23.9855 12.3404 24.0015 11.9791 24.0016C9.34022 24.0017 6.80283 23.1408 4.69781 21.5234L4.82053 22.9057C4.8434 23.1635 4.65295 23.3911 4.39504 23.414C4.38098 23.4153 4.36692 23.4159 4.35304 23.4159C4.1129 23.4159 3.90834 23.2323 3.88669 22.9886L3.65883 20.4217C3.63595 20.1638 3.8264 19.9362 4.08426 19.9133L6.6509 19.6854C6.90928 19.6628 7.13639 19.853 7.15931 20.1109C7.18218 20.3688 6.99173 20.5964 6.73387 20.6193L5.23378 20.7525C7.18106 22.2607 9.53367 23.064 11.9808 23.0641C12.3119 23.0641 12.6445 23.0494 12.9783 23.0198C15.9218 22.7584 18.5873 21.3665 20.4839 19.1003C23.1961 15.8595 23.8292 11.4387 22.1361 7.56305C22.0325 7.32581 22.1408 7.04948 22.378 6.94584C22.6151 6.8422 22.8916 6.95048 22.9952 7.18772C23.8756 9.20288 24.1864 11.422 23.8939 13.6052ZM18.7172 3.21033L17.2982 3.33633C17.0403 3.3592 16.8499 3.58683 16.8727 3.84469C16.8837 3.96852 16.9435 4.0829 17.0388 4.16269C17.1342 4.24247 17.2573 4.28112 17.3811 4.27013L19.948 4.04222C20.2059 4.01934 20.3963 3.79172 20.3735 3.53386L20.1456 0.967219C20.1227 0.709359 19.895 0.519141 19.6372 0.541734C19.3793 0.564609 19.1889 0.792234 19.2118 1.05009L19.3411 2.50758C16.9428 0.649265 13.9775 -0.223266 10.9387 0.0464063C7.74576 0.329906 4.85437 1.8398 2.79708 4.29797C1.33715 6.04233 0.406685 8.15053 0.106076 10.3947C-0.186283 12.5778 0.124451 14.797 1.00467 16.8123C1.08164 16.9885 1.25376 17.0936 1.43447 17.0936C1.49709 17.0936 1.56079 17.0809 1.62187 17.0543C1.85911 16.9507 1.96744 16.6744 1.86379 16.4371C0.170857 12.5611 0.803904 8.14022 3.51605 4.89966C7.32572 0.347531 14.0477 -0.362015 18.7172 3.21033ZM15.5299 11.9853C15.5299 13.9221 13.9543 15.4977 12.0176 15.4977C10.0809 15.4977 8.50528 13.9221 8.50528 11.9853C8.50528 10.0486 10.0809 8.47298 12.0176 8.47298C13.9543 8.47298 15.5299 10.0486 15.5299 11.9853ZM14.5924 11.9853C14.5924 10.5656 13.4374 9.41048 12.0176 9.41048C10.5979 9.41048 9.44278 10.5656 9.44278 11.9853C9.44278 13.4051 10.5979 14.5602 12.0176 14.5602C13.4374 14.5602 14.5924 13.4051 14.5924 11.9853ZM17.7547 14.3616C17.6137 14.7019 17.6043 15.2066 18.0004 15.6027C18.3693 15.9716 18.3693 16.5718 18.0004 16.9406L16.9729 17.9681C16.604 18.3369 16.0037 18.337 15.635 17.9681C15.2389 17.5719 14.7341 17.5814 14.3939 17.7223C14.0537 17.8632 13.6901 18.2134 13.6901 18.7737C13.6901 19.2953 13.2657 19.7197 12.7441 19.7197H11.291C10.7694 19.7197 10.345 19.2953 10.345 18.7737C10.345 18.2124 9.9817 17.862 9.64172 17.7212C9.30169 17.5804 8.79698 17.5712 8.40014 17.9681C8.2215 18.1468 7.98394 18.2452 7.73119 18.2452C7.47844 18.2452 7.24087 18.1468 7.06223 17.9681L6.03473 16.9406C5.66587 16.5717 5.66587 15.9716 6.03473 15.6027C6.43087 15.2065 6.42145 14.7018 6.2805 14.3616C6.13959 14.0213 5.78939 13.6578 5.22919 13.6578C4.70756 13.6578 4.28315 13.2335 4.28315 12.7118V11.2588C4.28315 10.7371 4.70756 10.3127 5.22919 10.3127C5.78939 10.3127 6.13959 9.94922 6.2805 9.60895C6.42145 9.26873 6.43087 8.76403 6.03473 8.36789C5.66592 7.99898 5.66592 7.3988 6.03473 7.02998L7.06223 6.00248C7.24092 5.8238 7.47848 5.72541 7.73119 5.72541C7.98389 5.72541 8.2215 5.82384 8.40014 6.00253C8.79623 6.39867 9.30098 6.38925 9.64125 6.2483C9.98147 6.10739 10.345 5.75719 10.345 5.19694C10.345 4.67531 10.7694 4.25091 11.291 4.25091H12.7441C13.2657 4.25091 13.6901 4.67527 13.6901 5.19694C13.6901 5.75719 14.0537 6.10739 14.3939 6.2483C14.7341 6.38916 15.2388 6.39862 15.635 6.00248C16.0038 5.63367 16.604 5.63358 16.9729 6.00244L18.0004 7.02998C18.3692 7.3988 18.3692 7.99898 18.0004 8.36789C17.6043 8.76403 17.6137 9.26873 17.7546 9.60895C17.8956 9.94917 18.2458 10.3127 18.806 10.3127C19.3276 10.3127 19.752 10.7371 19.752 11.2588V12.7118C19.752 13.2334 19.3276 13.6578 18.806 13.6578C18.2457 13.6579 17.8955 14.0214 17.7547 14.3616ZM18.806 12.7204C18.8082 12.7204 18.8104 12.7195 18.812 12.7179C18.8136 12.7163 18.8145 12.7141 18.8145 12.7118V11.2588C18.8145 11.2577 18.8143 11.2566 18.8139 11.2555C18.8134 11.2545 18.8128 11.2536 18.812 11.2528C18.8112 11.252 18.8103 11.2513 18.8092 11.2509C18.8082 11.2505 18.8071 11.2503 18.806 11.2503C17.9509 11.2503 17.2161 10.7588 16.8885 9.96778C16.5608 9.17672 16.7329 8.30967 17.3375 7.70503C17.3391 7.70343 17.34 7.70127 17.34 7.69901C17.34 7.69675 17.3391 7.69458 17.3375 7.69298L16.31 6.66544C16.3084 6.66385 16.3062 6.66296 16.3039 6.66296C16.3017 6.66296 16.2995 6.66385 16.2979 6.66544C15.6933 7.27003 14.8263 7.44216 14.0351 7.11445C13.2441 6.7868 12.7527 6.05203 12.7527 5.19694C12.7527 5.19225 12.7489 5.18841 12.7441 5.18841H11.2911C11.2888 5.18841 11.2866 5.1893 11.285 5.19091C11.2834 5.1925 11.2825 5.19467 11.2825 5.19694C11.2825 6.05203 10.7911 6.78675 10.0001 7.11445C9.20901 7.44202 8.34192 7.27008 7.73728 6.66544C7.73442 6.66253 7.72809 6.66262 7.72523 6.66544L6.69773 7.69294C6.69613 7.69454 6.69524 7.69672 6.69524 7.69898C6.69524 7.70125 6.69613 7.70342 6.69773 7.70503C7.30233 8.30962 7.4744 9.17667 7.14675 9.96773C6.81904 10.7588 6.08433 11.2502 5.22928 11.2502C5.22702 11.2502 5.22485 11.2511 5.22325 11.2527C5.22165 11.2543 5.22075 11.2565 5.22075 11.2588V12.7118C5.22075 12.7165 5.22455 12.7203 5.22928 12.7203C6.08433 12.7203 6.81904 13.2117 7.1467 14.0028C7.4744 14.7939 7.30233 15.661 6.69773 16.2656C6.69614 16.2672 6.69524 16.2694 6.69524 16.2716C6.69524 16.2739 6.69614 16.2761 6.69773 16.2777L7.72523 17.3052C7.72809 17.3081 7.73447 17.3081 7.73723 17.3052C8.1397 16.9028 8.658 16.6917 9.19261 16.6917C9.462 16.6917 9.73556 16.7453 10.0005 16.855C10.7913 17.1826 11.2826 17.9177 11.2826 18.7737C11.2826 18.7784 11.2864 18.7822 11.2911 18.7822H12.7442C12.7453 18.7822 12.7464 18.7819 12.7474 18.7815C12.7485 18.7811 12.7494 18.7805 12.7502 18.7797C12.751 18.7789 12.7516 18.778 12.7521 18.7769C12.7525 18.7759 12.7527 18.7748 12.7527 18.7737C12.7527 17.9186 13.2441 17.1838 14.0352 16.8562C14.8261 16.5285 15.6932 16.7005 16.2979 17.3052C16.3012 17.3085 16.3067 17.3085 16.3101 17.3052L17.3375 16.2777C17.3391 16.2761 17.34 16.274 17.34 16.2717C17.34 16.2694 17.3391 16.2673 17.3375 16.2657C16.7329 15.661 16.5608 14.794 16.8885 14.0029C17.2162 13.2118 17.9509 12.7204 18.806 12.7204Z" fill="black"/>
</g>
<defs>
<clipPath id="clip0_818_5606">
<rect width="24" height="24" fill="white"/>
</clipPath>
</defs>
</svg>
