<svg width="139" height="78" viewBox="0 0 139 78" fill="none" xmlns="http://www.w3.org/2000/svg">
<path d="M25.9728 38.469L1 42.8541V78H138V1.54224L114.166 38.2242C113.72 38.9102 112.901 39.2556 112.099 39.0962L93.1174 35.3271C92.8591 35.2758 92.6133 35.174 92.3944 35.0274L71.5655 21.0847C70.6882 20.4975 69.5055 20.6932 68.8642 21.5319L47.4015 49.6008C46.7656 50.4324 45.5961 50.6329 44.7195 50.0608L27.4119 38.764C26.987 38.4867 26.4726 38.3812 25.9728 38.469Z" fill="url(#paint0_linear_604_5731)" fill-opacity="0.25"/>
<path d="M1 42.6415L26.0033 38.2433C26.5038 38.1553 27.019 38.261 27.4443 38.5391L44.7735 49.8698C45.6507 50.4434 46.8219 50.2425 47.4578 49.4094L68.9485 21.2545C69.5898 20.4143 70.7742 20.2182 71.6521 20.8069L92.507 34.7916C92.7261 34.9385 92.972 35.0406 93.2307 35.092L112.228 38.8708C113.035 39.0314 113.858 38.6811 114.302 37.9882L138 1" stroke="#16B1FF" stroke-width="2"/>
<path d="M1 42.6415L26.0033 38.2433C26.5038 38.1553 27.019 38.261 27.4443 38.5391L44.7735 49.8698C45.6507 50.4434 46.8219 50.2425 47.4578 49.4094L68.9485 21.2545C69.5898 20.4143 70.7742 20.2182 71.6521 20.8069L92.507 34.7916C92.7261 34.9385 92.972 35.0406 93.2307 35.092L112.228 38.8708C113.035 39.0314 113.858 38.6811 114.302 37.9882L138 1" stroke="white" stroke-opacity="0.05" stroke-width="2"/>
<defs>
<linearGradient id="paint0_linear_604_5731" x1="69.5" y1="1.54224" x2="69.5" y2="78" gradientUnits="userSpaceOnUse">
<stop stop-color="#22B5FF" stop-opacity="0.7"/>
<stop offset="1" stop-color="#22B5FF" stop-opacity="0"/>
</linearGradient>
</defs>
</svg>
