<svg width="24" height="24" viewBox="0 0 24 24" fill="none" xmlns="http://www.w3.org/2000/svg">
<path fill-rule="evenodd" clip-rule="evenodd" d="M4 7C4 4.23858 6.23858 2 9 2C11.7614 2 14 4.23858 14 7C14 9.76142 11.7614 12 9 12C6.23858 12 4 9.76142 4 7ZM9 4C7.34315 4 6 5.34315 6 7C6 8.65685 7.34315 10 9 10C10.6569 10 12 8.65685 12 7C12 5.34315 10.6569 4 9 4Z" fill="black"/>
<path d="M2.46447 15.4645C3.40215 14.5268 4.67392 14 6 14H12C13.3261 14 14.5979 14.5268 15.5355 15.4645C16.4732 16.4021 17 17.6739 17 19V21C17 21.5523 16.5523 22 16 22C15.4477 22 15 21.5523 15 21V19C15 18.2043 14.6839 17.4413 14.1213 16.8787C13.5587 16.3161 12.7957 16 12 16H6C5.20435 16 4.44129 16.3161 3.87868 16.8787C3.31607 17.4413 3 18.2043 3 19V21C3 21.5523 2.55228 22 2 22C1.44772 22 1 21.5523 1 21V19C1 17.6739 1.52678 16.4021 2.46447 15.4645Z" fill="black"/>
<path d="M16.248 2.16125C15.713 2.02427 15.1682 2.34694 15.0313 2.88197C14.8943 3.41699 15.2169 3.96177 15.752 4.09875C16.3973 4.26398 16.9692 4.63928 17.3777 5.16549C17.7861 5.6917 18.0078 6.33888 18.0078 7.00501C18.0078 7.67113 17.7861 8.31831 17.3777 8.84452C16.9692 9.37073 16.3973 9.74603 15.752 9.91125C15.2169 10.0482 14.8943 10.593 15.0313 11.128C15.1682 11.6631 15.713 11.9857 16.248 11.8488C17.3236 11.5734 18.2768 10.9479 18.9576 10.0709C19.6383 9.19386 20.0078 8.11522 20.0078 7.00501C20.0078 5.89479 19.6383 4.81615 18.9576 3.93914C18.2768 3.06213 17.3236 2.43663 16.248 2.16125Z" fill="black"/>
<path d="M19.25 14.1618C18.7153 14.0237 18.1698 14.3453 18.0318 14.88C17.8937 15.4148 18.2153 15.9602 18.75 16.0983C19.3936 16.2644 19.9638 16.6396 20.371 17.165C20.7782 17.6902 20.9994 18.3358 21 19.0003L21 19.0008L21 21C21 21.5523 21.4477 22 22 22C22.5523 22 23 21.5523 23 21V18.9993C22.9992 17.8914 22.6305 16.8152 21.9517 15.9397C21.273 15.0641 20.3227 14.4387 19.25 14.1618Z" fill="black"/>
</svg>
