<svg width="101" height="100" viewBox="0 0 101 100" fill="none" xmlns="http://www.w3.org/2000/svg">
<g clip-path="url(#clip0_527_22831)">
<path fill-rule="evenodd" clip-rule="evenodd" d="M81.316 7.351H93.8333C97.5094 7.351 100.5 10.3416 100.5 14.0177V93.3197C100.5 96.9958 97.5094 99.9864 93.8333 99.9864H7.16667C3.49063 99.9864 0.5 96.9958 0.5 93.3197V14.0177C0.5 10.3416 3.49063 7.351 7.16667 7.351H19.6838L19.5938 6.67017C18.4129 -2.25816 32.5729 -2.15233 31.406 6.67017L30.3054 14.9929C29.564 20.5998 21.4358 20.6 20.6944 14.9929L20.1246 10.6843H7.16667C5.32875 10.6843 3.83333 12.1798 3.83333 14.0177V86.2364C3.83333 88.0743 5.32875 89.5698 7.16667 89.5698H81.195L94.8096 75.9552H86.8854C85.0475 75.9552 83.5521 77.4506 83.5521 79.2885V83.1887C83.5521 85.3937 80.2188 85.3937 80.2188 83.1887V79.2885C80.2188 75.6125 83.2094 72.6218 86.8854 72.6218H97.1667V14.0177C97.1667 12.1798 95.6713 10.6843 93.8333 10.6843H80.8752L80.3054 14.9929C79.564 20.5998 71.4358 20.6 70.6944 14.9929L70.1246 10.6843H62.1919C61.7499 10.6843 61.3259 10.5087 61.0134 10.1962C60.7008 9.88362 60.5252 9.4597 60.5252 9.01767C60.5252 8.57564 60.7008 8.15172 61.0134 7.83916C61.3259 7.5266 61.7499 7.351 62.1919 7.351H69.6838L69.5938 6.67017C68.4129 -2.25816 82.5729 -2.15233 81.406 6.67017L81.316 7.351ZM72.8983 6.23309L73.999 14.5558C74.2313 16.3116 76.7688 16.3114 77.0013 14.5556L78.1019 6.23309C78.6267 2.26476 72.3833 2.33892 72.8983 6.23309ZM27.001 14.5556L28.1017 6.23309C28.6265 2.2658 22.385 2.35267 22.8983 6.23288L23.999 14.5556C24.2313 16.3114 26.7688 16.3114 27.001 14.5556ZM7.16667 96.6531H93.8333C95.6713 96.6531 97.1667 95.1577 97.1667 93.3197V78.3122L83.064 92.415C82.7514 92.7275 82.3274 92.9031 81.8854 92.9031H7.16667C5.99582 92.904 4.84566 92.5945 3.83333 92.0062V93.3197C3.83333 95.1577 5.32875 96.6531 7.16667 96.6531Z" fill="black"/>
<path fill-rule="evenodd" clip-rule="evenodd" d="M45.1246 10.6843H38C37.558 10.6843 37.1341 10.5087 36.8215 10.1962C36.5089 9.88362 36.3334 9.4597 36.3334 9.01767C36.3334 8.57564 36.5089 8.15172 36.8215 7.83916C37.1341 7.5266 37.558 7.351 38 7.351H44.6838L44.5938 6.67017C43.4129 -2.25816 57.5729 -2.15233 56.4061 6.67017L55.3054 14.9929C54.564 20.5998 46.4359 20.6 45.6944 14.9929L45.1246 10.6843ZM52.0011 14.5556L53.1017 6.23309C53.6165 2.34059 47.375 2.276 47.8984 6.23288L48.999 14.5556C49.2313 16.3114 51.7688 16.3114 52.0011 14.5556Z" fill="black"/>
<path d="M91.0846 66.1625V26.9556C91.0846 26.5136 90.909 26.0896 90.5965 25.7771C90.2839 25.4645 89.86 25.2889 89.418 25.2889H11.5817C11.1397 25.2889 10.7158 25.4645 10.4032 25.7771C10.0906 26.0896 9.91505 26.5136 9.91505 26.9556V81.9287C9.91505 82.3707 10.0906 82.7947 10.4032 83.1072C10.7158 83.4198 11.1397 83.5954 11.5817 83.5954H74.0121C76.2174 83.5954 76.2174 80.262 74.0121 80.262H13.2484V28.6223H87.7511V66.1625C87.7513 68.3675 91.0846 68.3675 91.0846 66.1625Z" fill="black"/>
<path d="M29.0205 55.8885V63.9573C29.0205 66.1623 25.6872 66.1623 25.6872 63.9573V55.8885L20.2315 46.9802C19.0801 45.0998 21.9228 43.3587 23.0742 45.2394L27.3538 52.2275L31.6336 45.2394C32.7849 43.3587 35.6278 45.1 34.4763 46.9802L29.0205 55.8885Z" fill="black"/>
<path d="M38.2472 44.4431H47.4528C49.658 44.4431 49.658 47.7764 47.4528 47.7764H39.9138V53.3669H42.8499C45.0551 53.3669 45.0551 56.7002 42.8499 56.7002H39.9138V62.2906H47.4528C49.658 62.2906 49.658 65.6239 47.4528 65.6239H38.2472C37.8051 65.6239 37.3812 65.4483 37.0686 65.1358C36.7561 64.8232 36.5805 64.3993 36.5805 63.9573V46.1098C36.5805 45.6678 36.7561 45.2438 37.0686 44.9313C37.3812 44.6187 37.8051 44.4431 38.2472 44.4431Z" fill="black"/>
<path fill-rule="evenodd" clip-rule="evenodd" d="M70.1826 44.4431H74.0122C82.0815 44.4431 83.3317 55.2523 76.928 57.9667L80.6788 62.956C82.0172 64.736 79.3103 66.6825 78.0144 64.9589L73.1801 58.5281H71.8492V63.9573C71.8492 66.1623 68.5159 66.1623 68.5159 63.9573V46.1098C68.5159 45.6678 68.6915 45.2438 69.0041 44.9313C69.3166 44.6187 69.7405 44.4431 70.1826 44.4431ZM71.8492 55.1948H74.0122C78.9782 55.1948 78.8544 47.7764 74.0122 47.7764H71.8492V55.1948Z" fill="black"/>
<path fill-rule="evenodd" clip-rule="evenodd" d="M57.2346 45.5954C57.7315 44.0633 59.9084 44.0633 60.4053 45.5954L66.1951 63.4431C66.8755 65.5408 63.7047 66.5694 63.0244 64.4719L62.2301 62.0229H55.4097L54.6153 64.4719C53.9353 66.5694 50.7642 65.5404 51.4447 63.4431L57.2346 45.5954ZM58.8199 51.5106L56.4911 58.6894H61.1486L58.8199 51.5106Z" fill="black"/>
</g>
<defs>
<clipPath id="clip0_527_22831">
<rect width="100" height="100" fill="white" transform="translate(0.5)"/>
</clipPath>
</defs>
</svg>
