<svg width="71" height="92" viewBox="0 0 71 92" fill="none" xmlns="http://www.w3.org/2000/svg">
<path fill-rule="evenodd" clip-rule="evenodd" d="M21.8789 11.2954L23.5906 9.5829C23.6987 9.47097 23.828 9.38169 23.971 9.32028C24.1139 9.25886 24.2677 9.22653 24.4233 9.22518C24.5789 9.22383 24.7332 9.25348 24.8772 9.3124C25.0213 9.37133 25.1521 9.45834 25.2621 9.56837C25.3722 9.6784 25.4592 9.80924 25.5181 9.95326C25.577 10.0973 25.6067 10.2516 25.6053 10.4072C25.604 10.5628 25.5716 10.7166 25.5102 10.8595C25.4488 11.0025 25.3595 11.1318 25.2476 11.2399L22.2523 14.236V23.0931C22.2523 23.4039 22.1288 23.7019 21.9091 23.9217C21.6893 24.1415 21.3912 24.2649 21.0804 24.2649H10.1359C9.82509 24.2649 9.52702 24.1415 9.30725 23.9217C9.08748 23.7019 8.96402 23.4039 8.96402 23.0931V12.1485C8.96402 11.8377 9.08748 11.5397 9.30725 11.3199C9.52702 11.1001 9.82509 10.9766 10.1359 10.9766H21.0804C21.3775 10.9772 21.6631 11.0912 21.8789 11.2954ZM11.3078 21.9212H19.9085V16.579L17.121 19.3665C16.9013 19.5862 16.6033 19.7096 16.2925 19.7096C15.9818 19.7096 15.6838 19.5862 15.464 19.3665L13.5195 17.4227C13.306 17.2017 13.1879 16.9057 13.1906 16.5984C13.1932 16.2912 13.3165 15.9973 13.5338 15.78C13.751 15.5627 14.045 15.4395 14.3522 15.4368C14.6595 15.4341 14.9555 15.5522 15.1765 15.7657L16.2921 16.8821L19.8531 13.3204H11.3078V21.9212Z" fill="black"/>
<path fill-rule="evenodd" clip-rule="evenodd" d="M21.8789 30.7938L23.5906 29.0813C23.6987 28.9694 23.828 28.8801 23.971 28.8187C24.1139 28.7573 24.2677 28.725 24.4233 28.7236C24.5789 28.7223 24.7332 28.7519 24.8772 28.8108C25.0213 28.8698 25.1521 28.9568 25.2621 29.0668C25.3722 29.1768 25.4592 29.3077 25.5181 29.4517C25.577 29.5957 25.6067 29.75 25.6053 29.9056C25.604 30.0612 25.5716 30.215 25.5102 30.358C25.4488 30.501 25.3595 30.6303 25.2476 30.7384L22.2523 33.7345V42.5915C22.2523 42.9023 22.1288 43.2004 21.9091 43.4201C21.6893 43.6399 21.3912 43.7634 21.0804 43.7634H10.1359C9.82509 43.7634 9.52702 43.6399 9.30725 43.4201C9.08748 43.2004 8.96402 42.9023 8.96402 42.5915V31.647C8.96402 31.3362 9.08748 31.0381 9.30725 30.8183C9.52702 30.5986 9.82509 30.4751 10.1359 30.4751H21.0804C21.3775 30.4756 21.6631 30.5897 21.8789 30.7938ZM11.3078 41.4196H19.9085V36.0782L17.121 38.8657C16.9013 39.0854 16.6033 39.2088 16.2925 39.2088C15.9818 39.2088 15.6838 39.0854 15.464 38.8657L13.5195 36.922C13.306 36.7009 13.1879 36.4049 13.1906 36.0977C13.1932 35.7904 13.3165 35.4965 13.5338 35.2792C13.751 35.0619 14.045 34.9387 14.3522 34.936C14.6595 34.9333 14.9555 35.0515 15.1765 35.2649L16.2921 36.3806L19.8531 32.8188H11.3078V41.4196Z" fill="black"/>
<path fill-rule="evenodd" clip-rule="evenodd" d="M21.8789 50.2899L23.5906 48.5782C23.8106 48.3585 24.109 48.2351 24.4199 48.2354C24.7309 48.2356 25.029 48.3593 25.2488 48.5794C25.4685 48.7994 25.5918 49.0978 25.5916 49.4087C25.5914 49.7197 25.4677 50.0179 25.2476 50.2376L22.2523 53.2329V62.0938C22.2523 62.4046 22.1288 62.7027 21.9091 62.9225C21.6893 63.1422 21.3912 63.2657 21.0804 63.2657H10.1359C9.82509 63.2657 9.52702 63.1422 9.30725 62.9225C9.08748 62.7027 8.96402 62.4046 8.96402 62.0938V51.1438C8.96402 50.833 9.08748 50.535 9.30725 50.3152C9.52702 50.0954 9.82509 49.972 10.1359 49.972H21.0804C21.3774 49.9722 21.663 50.086 21.8789 50.2899ZM11.3078 60.922H19.9085V55.5767L17.121 58.3641C16.9013 58.5838 16.6033 58.7073 16.2925 58.7073C15.9818 58.7073 15.6838 58.5838 15.464 58.3641L13.5195 56.4204C13.306 56.1994 13.1879 55.9034 13.1906 55.5961C13.1932 55.2888 13.3165 54.9949 13.5338 54.7776C13.751 54.5604 14.045 54.4371 14.3522 54.4344C14.6595 54.4318 14.9555 54.5499 15.1765 54.7634L16.2921 55.879L19.8531 52.3181H11.3078V60.922Z" fill="black"/>
<path fill-rule="evenodd" clip-rule="evenodd" d="M10.1359 69.4727H21.0804C21.3912 69.4727 21.6893 69.5962 21.9091 69.816C22.1288 70.0357 22.2523 70.3338 22.2523 70.6446V81.5884C22.2523 81.8992 22.1288 82.1972 21.9091 82.417C21.6893 82.6368 21.3912 82.7602 21.0804 82.7602H10.1359C9.82509 82.7602 9.52702 82.6368 9.30725 82.417C9.08748 82.1972 8.96402 81.8992 8.96402 81.5884V70.6446C8.96402 70.3338 9.08748 70.0357 9.30725 69.816C9.52702 69.5962 9.82509 69.4727 10.1359 69.4727ZM11.3078 80.4165H19.9085V71.8165H11.3078V80.4165Z" fill="black"/>
<path d="M44.1929 16.1993H30.6296C30.3188 16.1993 30.0208 16.0758 29.801 15.8561C29.5812 15.6363 29.4578 15.3382 29.4578 15.0274C29.4578 14.7166 29.5812 14.4186 29.801 14.1988C30.0208 13.979 30.3188 13.8556 30.6296 13.8556H44.1929C44.5037 13.8556 44.8018 13.979 45.0216 14.1988C45.2413 14.4186 45.3648 14.7166 45.3648 15.0274C45.3648 15.3382 45.2413 15.6363 45.0216 15.8561C44.8018 16.0758 44.5037 16.1993 44.1929 16.1993Z" fill="black"/>
<path d="M30.6296 19.0423H53.3695C53.6803 19.0423 53.9784 19.1657 54.1981 19.3855C54.4179 19.6053 54.5414 19.9033 54.5414 20.2141C54.5414 20.5249 54.4179 20.823 54.1981 21.0428C53.9784 21.2626 53.6803 21.386 53.3695 21.386H30.6296C30.3188 21.386 30.0208 21.2626 29.801 21.0428C29.5812 20.823 29.4578 20.5249 29.4578 20.2141C29.4578 19.9033 29.5812 19.6053 29.801 19.3855C30.0208 19.1657 30.3188 19.0423 30.6296 19.0423Z" fill="black"/>
<path d="M44.1929 35.6977H30.6296C30.3188 35.6977 30.0208 35.5743 29.801 35.3545C29.5812 35.1347 29.4578 34.8367 29.4578 34.5259C29.4578 34.2151 29.5812 33.917 29.801 33.6972C30.0208 33.4775 30.3188 33.354 30.6296 33.354H44.1929C44.5037 33.354 44.8018 33.4775 45.0216 33.6972C45.2413 33.917 45.3648 34.2151 45.3648 34.5259C45.3648 34.8367 45.2413 35.1347 45.0216 35.3545C44.8018 35.5743 44.5037 35.6977 44.1929 35.6977Z" fill="black"/>
<path d="M30.6296 38.5407H53.3695C53.6803 38.5407 53.9784 38.6642 54.1981 38.8839C54.4179 39.1037 54.5414 39.4018 54.5414 39.7126C54.5414 40.0234 54.4179 40.3215 54.1981 40.5412C53.9784 40.761 53.6803 40.8845 53.3695 40.8845H30.6296C30.3188 40.8845 30.0208 40.761 29.801 40.5412C29.5812 40.3215 29.4578 40.0234 29.4578 39.7126C29.4578 39.4018 29.5812 39.1037 29.801 38.8839C30.0208 38.6642 30.3188 38.5407 30.6296 38.5407Z" fill="black"/>
<path d="M44.1929 55.1962H30.6296C30.3188 55.1962 30.0208 55.0727 29.801 54.8529C29.5812 54.6332 29.4578 54.3351 29.4578 54.0243C29.4578 53.7135 29.5812 53.4154 29.801 53.1957C30.0208 52.9759 30.3188 52.8524 30.6296 52.8524H44.1929C44.5037 52.8524 44.8018 52.9759 45.0216 53.1957C45.2413 53.4154 45.3648 53.7135 45.3648 54.0243C45.3648 54.3351 45.2413 54.6332 45.0216 54.8529C44.8018 55.0727 44.5037 55.1962 44.1929 55.1962Z" fill="black"/>
<path d="M30.6296 58.0391H53.3695C53.6803 58.0391 53.9784 58.1626 54.1981 58.3824C54.4179 58.6022 54.5414 58.9002 54.5414 59.211C54.5414 59.5218 54.4179 59.8199 54.1981 60.0397C53.9784 60.2594 53.6803 60.3829 53.3695 60.3829H30.6296C30.3188 60.3829 30.0208 60.2594 29.801 60.0397C29.5812 59.8199 29.4578 59.5218 29.4578 59.211C29.4578 58.9002 29.5812 58.6022 29.801 58.3824C30.0208 58.1626 30.3188 58.0391 30.6296 58.0391Z" fill="black"/>
<path d="M44.1929 74.6946H30.6296C30.3188 74.6946 30.0208 74.5711 29.801 74.3514C29.5812 74.1316 29.4578 73.8335 29.4578 73.5227C29.4578 73.2119 29.5812 72.9139 29.801 72.6941C30.0208 72.4743 30.3188 72.3509 30.6296 72.3509H44.1929C44.5037 72.3509 44.8018 72.4743 45.0216 72.6941C45.2413 72.9139 45.3648 73.2119 45.3648 73.5227C45.3648 73.8335 45.2413 74.1316 45.0216 74.3514C44.8018 74.5711 44.5037 74.6946 44.1929 74.6946Z" fill="black"/>
<path d="M30.6296 77.5376H53.3695C53.6803 77.5376 53.9784 77.661 54.1981 77.8808C54.4179 78.1006 54.5414 78.3987 54.5414 78.7094C54.5414 79.0203 54.4179 79.3183 54.1981 79.5381C53.9784 79.7579 53.6803 79.8813 53.3695 79.8813H30.6296C30.3188 79.8813 30.0208 79.7579 29.801 79.5381C29.5812 79.3183 29.4578 79.0203 29.4578 78.7094C29.4578 78.3987 29.5812 78.1006 29.801 77.8808C30.0208 77.661 30.3188 77.5376 30.6296 77.5376Z" fill="black"/>
<path fill-rule="evenodd" clip-rule="evenodd" d="M70.4461 14.9899V14.9938C70.4611 15.0679 70.4687 15.1433 70.4688 15.2188V85.4751C70.4669 87.0642 69.8348 88.5876 68.7112 89.7113C67.5875 90.8349 66.0641 91.467 64.475 91.4688H6.525C4.93593 91.467 3.41248 90.8349 2.28883 89.7113C1.16519 88.5876 0.533111 87.0642 0.53125 85.4751V6.52508C0.533111 4.93601 1.16519 3.41256 2.28883 2.28892C3.41248 1.16527 4.93593 0.533194 6.525 0.531333H55.7812C55.8572 0.530424 55.9331 0.536965 56.0078 0.550864C56.1069 0.57212 56.2028 0.606264 56.293 0.652427C56.3155 0.66337 56.3377 0.675096 56.3594 0.687583C56.4505 0.739008 56.5345 0.802034 56.6094 0.875083L70.125 14.3907C70.1972 14.4645 70.259 14.5478 70.3086 14.6384C70.3216 14.6606 70.3338 14.6833 70.3453 14.7063C70.3905 14.7963 70.4244 14.8916 70.4461 14.9899ZM56.9531 14.047H66.468L56.9531 4.53211V14.047ZM6.525 89.1251H64.475C65.4427 89.124 66.3705 88.7392 67.0548 88.0549C67.7391 87.3706 68.124 86.4428 68.125 85.4751V16.3907H55.7812C55.4704 16.3907 55.1724 16.2672 54.9526 16.0475C54.7328 15.8277 54.6094 15.5296 54.6094 15.2188V2.87508H6.525C5.55728 2.87612 4.62949 3.261 3.9452 3.94529C3.26092 4.62957 2.87603 5.55736 2.875 6.52508V85.4751C2.87603 86.4428 3.26092 87.3706 3.9452 88.0549C4.62949 88.7392 5.55728 89.124 6.525 89.1251Z" fill="black"/>
</svg>
