<svg width="101" height="100" viewBox="0 0 101 100" fill="none" xmlns="http://www.w3.org/2000/svg">
<g clip-path="url(#clip0_527_22810)">
<path fill-rule="evenodd" clip-rule="evenodd" d="M33.8329 40V30C33.8329 25.405 37.5712 21.6667 42.1662 21.6667C46.7612 21.6667 50.4996 25.405 50.4996 30V40C50.4948 41.558 50.0493 43.0828 49.2146 44.3983L50.1662 45.6667C50.3527 45.9139 50.4665 46.2082 50.4947 46.5165C50.523 46.8248 50.4646 47.1349 50.3263 47.4118C50.1879 47.6888 49.9749 47.9216 49.7114 48.0841C49.4478 48.2467 49.1442 48.3324 48.8346 48.3317C48.3262 48.3317 47.8262 48.1034 47.4996 47.665L46.8896 46.8517C45.5033 47.8161 43.855 48.3331 42.1662 48.3333C37.5712 48.3333 33.8329 44.595 33.8329 40ZM42.1662 25C39.4096 25 37.1662 27.2433 37.1662 30L37.1679 30.0017V40.0017C37.1679 42.7583 39.4112 45.0017 42.1679 45.0017C43.1353 45.0003 44.0812 44.7165 44.8896 44.185L42.5012 41C42.3698 40.8251 42.2741 40.626 42.2196 40.4141C42.1652 40.2022 42.1531 39.9816 42.1841 39.765C42.2151 39.5484 42.2885 39.3401 42.4001 39.1519C42.5117 38.9637 42.6594 38.7994 42.8346 38.6683C43.0094 38.5366 43.2085 38.4408 43.4204 38.3862C43.6324 38.3317 43.853 38.3196 44.0697 38.3505C44.2863 38.3815 44.4947 38.455 44.6829 38.5667C44.8711 38.6785 45.0353 38.8263 45.1662 39.0017L46.9496 41.3783C47.0762 40.9367 47.1662 40.4817 47.1662 40V30C47.1662 27.2433 44.9229 25 42.1662 25Z" fill="black"/>
<path d="M65.4996 48.3333H55.4996C55.0575 48.3333 54.6336 48.1578 54.3211 47.8452C54.0085 47.5326 53.8329 47.1087 53.8329 46.6667C53.8329 46.2247 54.0085 45.8007 54.3211 45.4882C54.6336 45.1756 55.0575 45 55.4996 45H58.8329V27.3567L58.3446 27.845C58.1898 27.9998 58.0061 28.1225 57.804 28.2062C57.6018 28.29 57.3851 28.3331 57.1662 28.3331C56.9474 28.3331 56.7307 28.29 56.5285 28.2062C56.3264 28.1225 56.1426 27.9998 55.9879 27.845C55.8332 27.6903 55.7104 27.5066 55.6267 27.3044C55.5429 27.1022 55.4998 26.8855 55.4998 26.6667C55.4998 26.4478 55.5429 26.2311 55.6267 26.029C55.7104 25.8268 55.8332 25.6431 55.9879 25.4883L59.3212 22.155C59.554 21.9212 59.851 21.7618 60.1745 21.697C60.4981 21.6323 60.8335 21.6651 61.1384 21.7914C61.4432 21.9176 61.7036 22.1316 61.8867 22.4062C62.0697 22.6807 62.167 23.0034 62.1662 23.3333V45H65.4996C65.9416 45 66.3655 45.1756 66.6781 45.4882C66.9906 45.8007 67.1662 46.2247 67.1662 46.6667C67.1662 47.1087 66.9906 47.5326 66.6781 47.8452C66.3655 48.1578 65.9416 48.3333 65.4996 48.3333Z" fill="black"/>
<path d="M22.1662 78.3334H23.8329C24.2749 78.3334 24.6989 78.5089 25.0114 78.8215C25.324 79.1341 25.4996 79.558 25.4996 80C25.4996 80.442 25.324 80.866 25.0114 81.1785C24.6989 81.4911 24.2749 81.6667 23.8329 81.6667H22.1662C21.7242 81.6667 21.3003 81.4911 20.9877 81.1785C20.6752 80.866 20.4996 80.442 20.4996 80C20.4996 79.558 20.6752 79.1341 20.9877 78.8215C21.3003 78.5089 21.7242 78.3334 22.1662 78.3334Z" fill="black"/>
<path d="M30.4996 78.3334H45.4996C45.9416 78.3334 46.3655 78.5089 46.6781 78.8215C46.9907 79.1341 47.1662 79.558 47.1662 80C47.1662 80.442 46.9907 80.866 46.6781 81.1785C46.3655 81.4911 45.9416 81.6667 45.4996 81.6667H30.4996C30.0575 81.6667 29.6336 81.4911 29.3211 81.1785C29.0085 80.866 28.8329 80.442 28.8329 80C28.8329 79.558 29.0085 79.1341 29.3211 78.8215C29.6336 78.5089 30.0575 78.3334 30.4996 78.3334Z" fill="black"/>
<path d="M22.1662 70H23.8329C24.2749 70 24.6989 70.1756 25.0114 70.4882C25.324 70.8007 25.4996 71.2247 25.4996 71.6667C25.4996 72.1087 25.324 72.5326 25.0114 72.8452C24.6989 73.1578 24.2749 73.3333 23.8329 73.3333H22.1662C21.7242 73.3333 21.3003 73.1578 20.9877 72.8452C20.6752 72.5326 20.4996 72.1087 20.4996 71.6667C20.4996 71.2247 20.6752 70.8007 20.9877 70.4882C21.3003 70.1756 21.7242 70 22.1662 70Z" fill="black"/>
<path d="M30.4996 70H45.4996C45.9416 70 46.3655 70.1756 46.6781 70.4882C46.9907 70.8007 47.1662 71.2247 47.1662 71.6667C47.1662 72.1087 46.9907 72.5326 46.6781 72.8452C46.3655 73.1578 45.9416 73.3333 45.4996 73.3333H30.4996C30.0575 73.3333 29.6336 73.1578 29.3211 72.8452C29.0085 72.5326 28.8329 72.1087 28.8329 71.6667C28.8329 71.2247 29.0085 70.8007 29.3211 70.4882C29.6336 70.1756 30.0575 70 30.4996 70Z" fill="black"/>
<path d="M77.1662 65H22.1662C21.7242 65 21.3003 64.8244 20.9877 64.5119C20.6752 64.1993 20.4996 63.7754 20.4996 63.3334C20.4996 62.8913 20.6752 62.4674 20.9877 62.1548C21.3003 61.8423 21.7242 61.6667 22.1662 61.6667H77.1662C77.6083 61.6667 78.0322 61.8423 78.3448 62.1548C78.6573 62.4674 78.8329 62.8913 78.8329 63.3334C78.8329 63.7754 78.6573 64.1993 78.3448 64.5119C78.0322 64.8244 77.6083 65 77.1662 65Z" fill="black"/>
<path d="M20.9877 56.1785C20.6752 55.866 20.4996 55.442 20.4996 55C20.4996 54.558 20.6752 54.1341 20.9877 53.8215C21.3003 53.5089 21.7242 53.3333 22.1662 53.3333H77.1662C77.6083 53.3333 78.0322 53.5089 78.3448 53.8215C78.6573 54.1341 78.8329 54.558 78.8329 55C78.8329 55.442 78.6573 55.866 78.3448 56.1785C78.0322 56.4911 77.6083 56.6667 77.1662 56.6667H22.1662C21.7242 56.6667 21.3003 56.4911 20.9877 56.1785Z" fill="black"/>
<path d="M22.1662 86.6667H23.8329C24.2749 86.6667 24.6989 86.8423 25.0114 87.1548C25.324 87.4674 25.4996 87.8913 25.4996 88.3333C25.4996 88.7754 25.324 89.1993 25.0114 89.5119C24.6989 89.8244 24.2749 90 23.8329 90H22.1662C21.7242 90 21.3003 89.8244 20.9877 89.5119C20.6752 89.1993 20.4996 88.7754 20.4996 88.3333C20.4996 87.8913 20.6752 87.4674 20.9877 87.1548C21.3003 86.8423 21.7242 86.6667 22.1662 86.6667Z" fill="black"/>
<path d="M30.4996 86.6667H45.4996C45.9416 86.6667 46.3655 86.8423 46.6781 87.1548C46.9907 87.4674 47.1662 87.8913 47.1662 88.3333C47.1662 88.7754 46.9907 89.1993 46.6781 89.5119C46.3655 89.8244 45.9416 90 45.4996 90H30.4996C30.0575 90 29.6336 89.8244 29.3211 89.5119C29.0085 89.1993 28.8329 88.7754 28.8329 88.3333C28.8329 87.8913 29.0085 87.4674 29.3211 87.1548C29.6336 86.8423 30.0575 86.6667 30.4996 86.6667Z" fill="black"/>
<path d="M77.1662 75V86.6667H78.8329C79.2749 86.6667 79.6989 86.8423 80.0114 87.1548C80.324 87.4674 80.4996 87.8913 80.4996 88.3333C80.4996 88.7754 80.324 89.1993 80.0114 89.5119C79.6989 89.8244 79.2749 90 78.8329 90H52.1662C51.7242 90 51.3003 89.8244 50.9877 89.5119C50.6752 89.1993 50.4996 88.7754 50.4996 88.3333C50.4996 87.8913 50.6752 87.4674 50.9877 87.1548C51.3003 86.8423 51.7242 86.6667 52.1662 86.6667H53.8329V78.3334C53.8329 77.8913 54.0085 77.4674 54.3211 77.1548C54.6336 76.8423 55.0575 76.6667 55.4996 76.6667C55.9416 76.6667 56.3655 76.8423 56.6781 77.1548C56.9906 77.4674 57.1662 77.8913 57.1662 78.3334V86.6667H60.4996V70C60.4996 69.558 60.6752 69.1341 60.9877 68.8215C61.3003 68.5089 61.7242 68.3333 62.1662 68.3333C62.6083 68.3333 63.0322 68.5089 63.3448 68.8215C63.6573 69.1341 63.8329 69.558 63.8329 70V86.6667H67.1662V76.6667C67.1662 76.2246 67.3418 75.8007 67.6544 75.4882C67.967 75.1756 68.3909 75 68.8329 75C69.2749 75 69.6989 75.1756 70.0114 75.4882C70.324 75.8007 70.4996 76.2246 70.4996 76.6667V86.6667H73.8329V75C73.8329 74.558 74.0085 74.1341 74.3211 73.8215C74.6336 73.5089 75.0575 73.3333 75.4996 73.3333C75.9416 73.3333 76.3655 73.5089 76.6781 73.8215C76.9907 74.1341 77.1662 74.558 77.1662 75Z" fill="black"/>
<path fill-rule="evenodd" clip-rule="evenodd" d="M18.833 100C16.0763 100 13.833 97.7567 13.833 95V25C13.8329 24.3433 13.9624 23.693 14.2141 23.0864C14.4658 22.4798 14.8347 21.9288 15.2997 21.465L35.2997 1.46667C36.2047 0.56 37.4547 0 38.833 0H82.1664C84.923 0 87.1663 2.24333 87.1663 5V95C87.1663 97.7567 84.923 100 82.1664 100H18.833ZM82.1664 3.33333H38.833C38.391 3.33333 37.9671 3.50893 37.6545 3.82149C37.3419 4.13405 37.1663 4.55797 37.1663 5V18.3333C37.1663 21.09 34.923 23.3333 32.1663 23.3333H18.833C18.391 23.3333 17.9671 23.5089 17.6545 23.8215C17.3419 24.1341 17.1663 24.558 17.1663 25V95C17.1663 95.442 17.3419 95.866 17.6545 96.1785C17.9671 96.4911 18.391 96.6667 18.833 96.6667H82.1664C82.6084 96.6667 83.0323 96.4911 83.3449 96.1785C83.6574 95.866 83.833 95.442 83.833 95V5C83.833 4.55797 83.6574 4.13405 83.3449 3.82149C83.0323 3.50893 82.6084 3.33333 82.1664 3.33333ZM33.833 7.64333L21.4763 20H32.1663C32.6084 20 33.0323 19.8244 33.3449 19.5118C33.6574 19.1993 33.833 18.7754 33.833 18.3333V7.64333Z" fill="black"/>
</g>
<defs>
<clipPath id="clip0_527_22810">
<rect width="100" height="100" fill="white" transform="translate(0.5)"/>
</clipPath>
</defs>
</svg>
