<svg width="101" height="86" viewBox="0 0 101 86" fill="none" xmlns="http://www.w3.org/2000/svg">
<path d="M56.8037 76.4659H3.61055V15.1707H78.0977V39.9942C78.0977 40.1984 78.1379 40.4006 78.216 40.5893C78.2942 40.778 78.4088 40.9495 78.5532 41.0939C78.6976 41.2383 78.8691 41.3529 79.0578 41.431C79.2464 41.5092 79.4487 41.5494 79.6529 41.5494C79.8572 41.5494 80.0594 41.5092 80.2481 41.431C80.4368 41.3529 80.6083 41.2383 80.7527 41.0939C80.8971 40.9495 81.0117 40.778 81.0898 40.5893C81.168 40.4006 81.2082 40.1984 81.2082 39.9942V2.16624C81.2082 1.75375 81.0443 1.35816 80.7527 1.06649C80.461 0.774821 80.0654 0.610962 79.6529 0.610962H2.05527C1.85102 0.610936 1.64877 0.651147 1.46007 0.729298C1.27136 0.807449 1.0999 0.922008 0.955472 1.06643C0.811046 1.21086 0.696487 1.38232 0.618336 1.57103C0.540185 1.75973 0.499974 1.96199 0.5 2.16624V78.0211C0.5 78.2254 0.540228 78.4276 0.618388 78.6163C0.696548 78.805 0.811109 78.9764 0.955529 79.1209C1.09995 79.2653 1.2714 79.3798 1.4601 79.458C1.64879 79.5362 1.85103 79.5764 2.05527 79.5764H56.8037C57.2162 79.5764 57.6118 79.4125 57.9035 79.1209C58.1951 78.8292 58.359 78.4336 58.359 78.0211C58.359 77.6086 58.1951 77.213 57.9035 76.9214C57.6118 76.6297 57.2162 76.4659 56.8037 76.4659ZM78.0977 3.72131V12.0602H3.61055V3.72131H78.0977ZM21.9703 7.89084C21.9703 6.47678 23.1207 5.32639 24.5348 5.32639C25.9488 5.32639 27.0992 6.47678 27.0992 7.89084C27.0992 9.30491 25.9488 10.4553 24.5348 10.4553C23.1207 10.4553 21.9703 9.30491 21.9703 7.89084ZM14.0838 7.89084C14.0838 6.47678 15.2316 5.32639 16.6428 5.32639C18.0568 5.32639 19.2072 6.47678 19.2072 7.89084C19.2072 9.30491 18.0568 10.4553 16.6428 10.4553C15.2316 10.4553 14.0838 9.30491 14.0838 7.89084ZM6.1916 7.89084C6.1916 6.47678 7.34199 5.32639 8.75605 5.32639C10.1672 5.32639 11.315 6.47678 11.315 7.89084C11.315 9.30491 10.167 10.4553 8.75605 10.4553C7.34199 10.4553 6.1916 9.30491 6.1916 7.89084ZM8.14395 44.8531C7.73146 44.8531 7.33587 45.017 7.0442 45.3087C6.75253 45.6003 6.58867 45.9959 6.58867 46.4084V69.9414C6.58867 70.3539 6.75253 70.7495 7.0442 71.0412C7.33587 71.3328 7.73146 71.4967 8.14395 71.4967H32.8352C33.2476 71.4967 33.6432 71.3328 33.9349 71.0412C34.2266 70.7495 34.3904 70.3539 34.3904 69.9414V46.4082C34.3904 46.204 34.3502 46.0017 34.272 45.813C34.1939 45.6244 34.0793 45.4529 33.9349 45.3085C33.7905 45.1641 33.619 45.0495 33.4303 44.9713C33.2416 44.8932 33.0394 44.853 32.8352 44.853H8.14395V44.8531ZM31.2799 68.386H9.69922V47.9635H31.2799V68.386ZM57.0133 46.4082C57.0133 46.8207 56.8494 47.2163 56.5578 47.508C56.2661 47.7996 55.8705 47.9635 55.458 47.9635H39.6133C39.2008 47.9635 38.8052 47.7996 38.5135 47.508C38.2219 47.2163 38.058 46.8207 38.058 46.4082C38.058 45.9957 38.2219 45.6002 38.5135 45.3085C38.8052 45.0168 39.2008 44.853 39.6133 44.853H55.4582C55.8707 44.853 56.2662 45.0169 56.5578 45.3086C56.8494 45.6002 57.0133 45.9958 57.0133 46.4082ZM57.0133 53.4621C57.0133 53.8746 56.8494 54.2702 56.5578 54.5619C56.2661 54.8535 55.8705 55.0174 55.458 55.0174H39.6133C39.2008 55.0174 38.8052 54.8535 38.5135 54.5619C38.2219 54.2702 38.058 53.8746 38.058 53.4621C38.058 53.0497 38.2219 52.6541 38.5135 52.3624C38.8052 52.0707 39.2008 51.9069 39.6133 51.9069H55.4582C55.8707 51.9069 56.2662 52.0708 56.5578 52.3625C56.8494 52.6541 57.0133 53.0497 57.0133 53.4621ZM66.4 41.9797H73.5641C73.7683 41.9797 73.9706 41.9395 74.1592 41.8613C74.3479 41.7832 74.5194 41.6686 74.6638 41.5242C74.8082 41.3798 74.9228 41.2083 75.0009 41.0196C75.0791 40.8309 75.1193 40.6287 75.1193 40.4244C75.1193 40.2202 75.0791 40.018 75.0009 39.8293C74.9228 39.6406 74.8082 39.4691 74.6638 39.3247C74.5194 39.1803 74.3479 39.0657 74.1592 38.9876C73.9706 38.9094 73.7683 38.8692 73.5641 38.8692H67.9553V34.0049C67.9553 33.5924 67.7914 33.1968 67.4997 32.9052C67.2081 32.6135 66.8125 32.4496 66.4 32.4496H59.2414C58.8289 32.4496 58.4333 32.6135 58.1417 32.9052C57.85 33.1968 57.6861 33.5924 57.6861 34.0049V38.8692H55.1822V20.0074C55.1822 19.595 55.0184 19.1994 54.7267 18.9077C54.435 18.616 54.0394 18.4522 53.627 18.4522H46.4684C46.0559 18.4522 45.6603 18.616 45.3686 18.9077C45.0769 19.1994 44.9131 19.595 44.9131 20.0074V38.8692H42.4092V33.3817C42.4092 32.9692 42.2453 32.5736 41.9537 32.2819C41.662 31.9902 41.2664 31.8264 40.8539 31.8264H33.6896C33.2772 31.8264 32.8816 31.9902 32.5899 32.2819C32.2982 32.5736 32.1344 32.9692 32.1344 33.3817V38.8692H29.6305V19.0479C29.6305 18.6354 29.4666 18.2398 29.1749 17.9481C28.8833 17.6565 28.4877 17.4926 28.0752 17.4926H20.9166C20.5041 17.4926 20.1085 17.6565 19.8169 17.9481C19.5252 18.2398 19.3613 18.6354 19.3613 19.0479V38.8692H16.8574V26.736C16.8574 26.3235 16.6936 25.9279 16.4019 25.6362C16.1102 25.3445 15.7146 25.1807 15.3021 25.1807H8.14395C7.73146 25.1807 7.33587 25.3445 7.0442 25.6362C6.75253 25.9279 6.58867 26.3235 6.58867 26.736V40.4244C6.58867 40.7562 6.6947 41.0792 6.89129 41.3465C7.08788 41.6137 7.36474 41.8111 7.68145 41.9098C7.8312 41.9563 7.98713 41.9799 8.14395 41.9797H59.241H66.4ZM60.7967 35.5602H64.8449V38.8692H60.7967V35.5602ZM9.69922 38.8692V28.2912H13.7475V38.8692H9.69922ZM22.4723 38.8692V20.6032H26.5205V38.8692H22.4723ZM35.2451 38.8692V34.9369H39.2988V38.8692H35.2451ZM48.0236 38.8692V21.5627H52.0719V38.8692H48.0236ZM79.6527 43.695C68.1576 43.695 58.8057 53.0469 58.8057 64.542C58.8057 76.0371 68.1576 85.3893 79.6527 85.3893C91.1479 85.3893 100.5 76.0371 100.5 64.542C100.5 53.0469 91.148 43.695 79.6527 43.695ZM79.6527 82.2787C69.8727 82.2787 61.9162 74.3221 61.9162 64.542C61.9162 54.7619 69.8728 46.8055 79.6527 46.8055C89.4326 46.8055 97.3895 54.7621 97.3895 64.542C97.3895 74.3219 89.4328 82.2787 79.6527 82.2787ZM57.0133 60.516C57.0133 60.9285 56.8494 61.3241 56.5578 61.6158C56.2661 61.9075 55.8705 62.0713 55.458 62.0713H39.6133C39.2008 62.0713 38.8052 61.9075 38.5135 61.6158C38.2219 61.3241 38.058 60.9285 38.058 60.516C38.058 60.1036 38.2219 59.708 38.5135 59.4163C38.8052 59.1246 39.2008 58.9608 39.6133 58.9608H55.4582C55.8707 58.9608 56.2662 59.1247 56.5578 59.4164C56.8494 59.708 57.0133 60.1036 57.0133 60.516ZM90.1834 70.5274C90.069 70.8181 89.8697 71.0676 89.6115 71.2435C89.3533 71.4194 89.0481 71.5135 88.7357 71.5135C88.5409 71.5135 88.3478 71.4767 88.1666 71.4051L79.0832 67.8313C78.7926 67.7169 78.5431 67.5177 78.3673 67.2596C78.1914 67.0014 78.0974 66.6963 78.0975 66.384V51.2451C78.0975 50.8327 78.2613 50.4371 78.553 50.1454C78.8447 49.8537 79.2402 49.6899 79.6527 49.6899C80.0652 49.6899 80.4608 49.8537 80.7525 50.1454C81.0442 50.4371 81.208 50.8327 81.208 51.2451V65.3246L89.3055 68.5106C89.4956 68.5853 89.6691 68.6968 89.8161 68.8386C89.9631 68.9804 90.0807 69.1498 90.1622 69.3371C90.2438 69.5244 90.2876 69.7259 90.2912 69.9301C90.2949 70.1344 90.2582 70.3373 90.1834 70.5274Z" fill="black"/>
</svg>
