<svg width="101" height="100" viewBox="0 0 101 100" fill="none" xmlns="http://www.w3.org/2000/svg">
<path fill-rule="evenodd" clip-rule="evenodd" d="M81.75 12.5H89.5625C91.6345 12.5 93.6216 13.3231 95.0868 14.7882C96.5519 16.2534 97.375 18.2405 97.375 20.3125V60.9375C97.375 61.3519 97.2104 61.7493 96.9174 62.0424C96.6243 62.3354 96.2269 62.5 95.8125 62.5C95.3981 62.5 95.0007 62.3354 94.7076 62.0424C94.4146 61.7493 94.25 61.3519 94.25 60.9375V34.375H6.75V82.8125C6.75371 84.0546 7.24876 85.2447 8.12704 86.123C9.00531 87.0012 10.1954 87.4963 11.4375 87.5H55.1875C55.6019 87.5 55.9993 87.6646 56.2924 87.9576C56.5854 88.2507 56.75 88.6481 56.75 89.0625C56.75 89.4769 56.5854 89.8743 56.2924 90.1674C55.9993 90.4604 55.6019 90.625 55.1875 90.625H11.4375C9.3655 90.625 7.37836 89.8019 5.91323 88.3368C4.4481 86.8716 3.625 84.8845 3.625 82.8125V20.3125C3.625 18.2405 4.4481 16.2534 5.91323 14.7882C7.37836 13.3231 9.3655 12.5 11.4375 12.5H19.25V9.375C19.25 7.7174 19.9085 6.12768 21.0806 4.95558C22.2527 3.78348 23.8424 3.125 25.5 3.125C27.1576 3.125 28.7473 3.78348 29.9194 4.95558C31.0915 6.12768 31.75 7.7174 31.75 9.375V12.5H44.25V9.375C44.25 7.7174 44.9085 6.12768 46.0806 4.95558C47.2527 3.78348 48.8424 3.125 50.5 3.125C52.1576 3.125 53.7473 3.78348 54.9194 4.95558C56.0915 6.12768 56.75 7.7174 56.75 9.375V12.5H69.25V9.375C69.25 7.7174 69.9085 6.12768 71.0806 4.95558C72.2527 3.78348 73.8424 3.125 75.5 3.125C77.1576 3.125 78.7473 3.78348 79.9194 4.95558C81.0915 6.12768 81.75 7.7174 81.75 9.375V12.5ZM73.2903 7.16529C72.7042 7.75134 72.375 8.5462 72.375 9.375V18.75C72.375 19.5788 72.7042 20.3737 73.2903 20.9597C73.8763 21.5458 74.6712 21.875 75.5 21.875C76.3288 21.875 77.1237 21.5458 77.7097 20.9597C78.2958 20.3737 78.625 19.5788 78.625 18.75V9.375C78.625 8.5462 78.2958 7.75134 77.7097 7.16529C77.1237 6.57924 76.3288 6.25 75.5 6.25C74.6712 6.25 73.8763 6.57924 73.2903 7.16529ZM48.2903 7.16529C47.7042 7.75134 47.375 8.5462 47.375 9.375V18.75C47.375 19.5788 47.7042 20.3737 48.2903 20.9597C48.8763 21.5458 49.6712 21.875 50.5 21.875C51.3288 21.875 52.1237 21.5458 52.7097 20.9597C53.2958 20.3737 53.625 19.5788 53.625 18.75V9.375C53.625 8.5462 53.2958 7.75134 52.7097 7.16529C52.1237 6.57924 51.3288 6.25 50.5 6.25C49.6712 6.25 48.8763 6.57924 48.2903 7.16529ZM23.2903 7.16529C22.7042 7.75134 22.375 8.5462 22.375 9.375V18.75C22.375 19.5788 22.7042 20.3737 23.2903 20.9597C23.8763 21.5458 24.6712 21.875 25.5 21.875C26.3288 21.875 27.1237 21.5458 27.7097 20.9597C28.2958 20.3737 28.625 19.5788 28.625 18.75V9.375C28.625 8.5462 28.2958 7.75134 27.7097 7.16529C27.1237 6.57924 26.3288 6.25 25.5 6.25C24.6712 6.25 23.8763 6.57924 23.2903 7.16529ZM6.75 20.3125V31.25H94.25V20.3125C94.2463 19.0704 93.7512 17.8803 92.873 17.002C91.9947 16.1238 90.8046 15.6287 89.5625 15.625H81.75V18.75C81.75 20.4076 81.0915 21.9973 79.9194 23.1694C78.7473 24.3415 77.1576 25 75.5 25C73.8424 25 72.2527 24.3415 71.0806 23.1694C69.9085 21.9973 69.25 20.4076 69.25 18.75V15.625H56.75V18.75C56.75 20.4076 56.0915 21.9973 54.9194 23.1694C53.7473 24.3415 52.1576 25 50.5 25C48.8424 25 47.2527 24.3415 46.0806 23.1694C44.9085 21.9973 44.25 20.4076 44.25 18.75V15.625H31.75V18.75C31.75 20.4076 31.0915 21.9973 29.9194 23.1694C28.7473 24.3415 27.1576 25 25.5 25C23.8424 25 22.2527 24.3415 21.0806 23.1694C19.9085 21.9973 19.25 20.4076 19.25 18.75V15.625H11.4375C10.1954 15.6287 9.00531 16.1238 8.12704 17.002C7.24876 17.8803 6.75371 19.0704 6.75 20.3125Z" fill="black"/>
<path fill-rule="evenodd" clip-rule="evenodd" d="M46.4597 43.1028C47.0458 43.6888 47.375 44.4837 47.375 45.3125V50C47.375 50.8288 47.0458 51.6237 46.4597 52.2097C45.8737 52.7958 45.0788 53.125 44.25 53.125H38C37.1712 53.125 36.3763 52.7958 35.7903 52.2097C35.2042 51.6237 34.875 50.8288 34.875 50V45.3125C34.875 44.4837 35.2042 43.6888 35.7903 43.1028C36.3763 42.5167 37.1712 42.1875 38 42.1875H44.25C45.0788 42.1875 45.8737 42.5167 46.4597 43.1028ZM38 45.3125V50H44.25V45.3125H38Z" fill="black"/>
<path fill-rule="evenodd" clip-rule="evenodd" d="M27.7097 43.1028C28.2958 43.6888 28.625 44.4837 28.625 45.3125V50C28.625 50.8288 28.2958 51.6237 27.7097 52.2097C27.1237 52.7958 26.3288 53.125 25.5 53.125H19.25C18.4212 53.125 17.6263 52.7958 17.0403 52.2097C16.4542 51.6237 16.125 50.8288 16.125 50V45.3125C16.125 44.4837 16.4542 43.6888 17.0403 43.1028C17.6263 42.5167 18.4212 42.1875 19.25 42.1875H25.5C26.3288 42.1875 27.1237 42.5167 27.7097 43.1028ZM19.25 45.3125V50H25.5V45.3125H19.25Z" fill="black"/>
<path fill-rule="evenodd" clip-rule="evenodd" d="M83.9597 52.2097C83.3737 52.7958 82.5788 53.125 81.75 53.125H75.5C74.6712 53.125 73.8763 52.7958 73.2903 52.2097C72.7042 51.6237 72.375 50.8288 72.375 50V45.3125C72.375 44.4837 72.7042 43.6888 73.2903 43.1028C73.8763 42.5167 74.6712 42.1875 75.5 42.1875H81.75C82.5788 42.1875 83.3737 42.5167 83.9597 43.1028C84.5458 43.6888 84.875 44.4837 84.875 45.3125V50C84.875 50.8288 84.5458 51.6237 83.9597 52.2097ZM81.75 50V45.3125H75.5V50H81.75Z" fill="black"/>
<path fill-rule="evenodd" clip-rule="evenodd" d="M46.4597 57.1653C47.0458 57.7513 47.375 58.5462 47.375 59.375V64.0625C47.375 64.8913 47.0458 65.6862 46.4597 66.2722C45.8737 66.8583 45.0788 67.1875 44.25 67.1875H38C37.1712 67.1875 36.3763 66.8583 35.7903 66.2722C35.2042 65.6862 34.875 64.8913 34.875 64.0625V59.375C34.875 58.5462 35.2042 57.7513 35.7903 57.1653C36.3763 56.5792 37.1712 56.25 38 56.25H44.25C45.0788 56.25 45.8737 56.5792 46.4597 57.1653ZM38 59.375V64.0625H44.25V59.375H38Z" fill="black"/>
<path fill-rule="evenodd" clip-rule="evenodd" d="M27.7097 57.1653C28.2958 57.7513 28.625 58.5462 28.625 59.375V64.0625C28.625 64.8913 28.2958 65.6862 27.7097 66.2722C27.1237 66.8583 26.3288 67.1875 25.5 67.1875H19.25C18.4212 67.1875 17.6263 66.8583 17.0403 66.2722C16.4542 65.6862 16.125 64.8913 16.125 64.0625V59.375C16.125 58.5462 16.4542 57.7513 17.0403 57.1653C17.6263 56.5792 18.4212 56.25 19.25 56.25H25.5C26.3288 56.25 27.1237 56.5792 27.7097 57.1653ZM19.25 59.375V64.0625H25.5V59.375H19.25Z" fill="black"/>
<path fill-rule="evenodd" clip-rule="evenodd" d="M38 70.3125H44.25C45.0788 70.3125 45.8737 70.6417 46.4597 71.2278C47.0458 71.8138 47.375 72.6087 47.375 73.4375V78.125C47.375 78.9538 47.0458 79.7487 46.4597 80.3347C45.8737 80.9208 45.0788 81.25 44.25 81.25H38C37.1712 81.25 36.3763 80.9208 35.7903 80.3347C35.2042 79.7487 34.875 78.9538 34.875 78.125V73.4375C34.875 72.6087 35.2042 71.8138 35.7903 71.2278C36.3763 70.6417 37.1712 70.3125 38 70.3125ZM38 73.4375V78.125H44.25V73.4375H38Z" fill="black"/>
<path fill-rule="evenodd" clip-rule="evenodd" d="M63 53.125H56.75C55.9212 53.125 55.1263 52.7958 54.5403 52.2097C53.9542 51.6237 53.625 50.8288 53.625 50V45.3125C53.625 44.4837 53.9542 43.6888 54.5403 43.1028C55.1263 42.5167 55.9212 42.1875 56.75 42.1875H63C63.8288 42.1875 64.6237 42.5167 65.2097 43.1028C65.7958 43.6888 66.125 44.4837 66.125 45.3125V50C66.125 50.8288 65.7958 51.6237 65.2097 52.2097C64.6237 52.7958 63.8288 53.125 63 53.125ZM63 45.3125H56.75V50H63V45.3125Z" fill="black"/>
<path d="M54.5403 66.2722C53.9542 65.6862 53.625 64.8913 53.625 64.0625V59.375C53.625 58.5462 53.9542 57.7513 54.5403 57.1653C55.1263 56.5792 55.9212 56.25 56.75 56.25H63C63.4144 56.25 63.8118 56.4146 64.1049 56.7076C64.3979 57.0007 64.5625 57.3981 64.5625 57.8125C64.5625 58.2269 64.3979 58.6243 64.1049 58.9174C63.8118 59.2104 63.4144 59.375 63 59.375H56.75V64.0625C57.1644 64.0625 57.5618 64.2271 57.8549 64.5201C58.1479 64.8132 58.3125 65.2106 58.3125 65.625C58.3125 66.0394 58.1479 66.4368 57.8549 66.7299C57.5618 67.0229 57.1644 67.1875 56.75 67.1875C55.9212 67.1875 55.1263 66.8583 54.5403 66.2722Z" fill="black"/>
<path fill-rule="evenodd" clip-rule="evenodd" d="M19.25 70.3125H25.5C26.3288 70.3125 27.1237 70.6417 27.7097 71.2278C28.2958 71.8138 28.625 72.6087 28.625 73.4375V78.125C28.625 78.9538 28.2958 79.7487 27.7097 80.3347C27.1237 80.9208 26.3288 81.25 25.5 81.25H19.25C18.4212 81.25 17.6263 80.9208 17.0403 80.3347C16.4542 79.7487 16.125 78.9538 16.125 78.125V73.4375C16.125 72.6087 16.4542 71.8138 17.0403 71.2278C17.6263 70.6417 18.4212 70.3125 19.25 70.3125ZM19.25 73.4375V78.125H25.5V73.4375H19.25Z" fill="black"/>
<path d="M73.9375 82.1656L86.0906 70.0125C86.3853 69.7279 86.78 69.5704 87.1897 69.5739C87.5993 69.5775 87.9912 69.7418 88.2809 70.0315C88.5706 70.3212 88.735 70.7131 88.7385 71.1228C88.7421 71.5325 88.5846 71.9272 88.3 72.2219L75.0422 85.4797C74.7491 85.7726 74.3518 85.9372 73.9375 85.9372C73.5231 85.9372 73.1258 85.7726 72.8328 85.4797L66.2047 78.85C65.92 78.5553 65.7625 78.1606 65.7661 77.7509C65.7697 77.3412 65.934 76.9493 66.2237 76.6597C66.5134 76.3699 66.9053 76.2056 67.315 76.2021C67.7246 76.1985 68.1193 76.356 68.414 76.6406L73.9375 82.1656Z" fill="black"/>
<path fill-rule="evenodd" clip-rule="evenodd" d="M77.0625 56.25C73.0451 56.25 69.1179 57.4413 65.7775 59.6733C62.4371 61.9052 59.8336 65.0776 58.2962 68.7892C56.7588 72.5009 56.3565 76.585 57.1403 80.5253C57.9241 84.4655 59.8587 88.0849 62.6994 90.9256C65.5402 93.7664 69.1595 95.7009 73.0997 96.4847C77.04 97.2685 81.1241 96.8662 84.8358 95.3288C88.5474 93.7914 91.7198 91.1879 93.9517 87.8475C96.1837 84.5071 97.375 80.5799 97.375 76.5625C97.3688 71.1772 95.2268 66.0142 91.4188 62.2062C87.6108 58.3983 82.4478 56.2562 77.0625 56.25ZM77.0625 93.75C73.6631 93.75 70.3401 92.742 67.5137 90.8534C64.6872 88.9648 62.4842 86.2805 61.1833 83.1399C59.8825 79.9993 59.5421 76.5434 60.2053 73.2094C60.8684 69.8753 62.5054 66.8128 64.9091 64.4091C67.3128 62.0054 70.3754 60.3684 73.7094 59.7052C77.0434 59.0421 80.4993 59.3824 83.6399 60.6833C86.7805 61.9842 89.4648 64.1872 91.3534 67.0136C93.242 69.8401 94.25 73.1631 94.25 76.5625C94.2446 81.1193 92.4321 85.4878 89.21 88.71C85.9879 91.9321 81.6193 93.7446 77.0625 93.75Z" fill="black"/>
</svg>
